G75*
%MOIN*%
%OFA0B0*%
%FSLAX25Y25*%
%IPPOS*%
%LPD*%
%AMOC8*
5,1,8,0,0,1.08239X$1,22.5*
%
%ADD10C,0.00600*%
%ADD11C,0.00500*%
%ADD12C,0.01000*%
%ADD13C,0.00300*%
%ADD14C,0.00200*%
D10*
X0047750Y0034050D02*
X0047750Y0038250D01*
X0047750Y0042250D01*
X0047750Y0046450D01*
X0047752Y0046526D01*
X0047758Y0046602D01*
X0047767Y0046677D01*
X0047781Y0046752D01*
X0047798Y0046826D01*
X0047819Y0046899D01*
X0047843Y0046971D01*
X0047872Y0047042D01*
X0047903Y0047111D01*
X0047938Y0047178D01*
X0047977Y0047243D01*
X0048019Y0047307D01*
X0048064Y0047368D01*
X0048112Y0047427D01*
X0048163Y0047483D01*
X0048217Y0047537D01*
X0048273Y0047588D01*
X0048332Y0047636D01*
X0048393Y0047681D01*
X0048457Y0047723D01*
X0048522Y0047762D01*
X0048589Y0047797D01*
X0048658Y0047828D01*
X0048729Y0047857D01*
X0048801Y0047881D01*
X0048874Y0047902D01*
X0048948Y0047919D01*
X0049023Y0047933D01*
X0049098Y0047942D01*
X0049174Y0047948D01*
X0049250Y0047950D01*
X0047750Y0042250D02*
X0047838Y0042248D01*
X0047927Y0042242D01*
X0048015Y0042232D01*
X0048102Y0042219D01*
X0048189Y0042201D01*
X0048275Y0042180D01*
X0048360Y0042155D01*
X0048443Y0042126D01*
X0048526Y0042093D01*
X0048606Y0042057D01*
X0048685Y0042018D01*
X0048763Y0041975D01*
X0048838Y0041928D01*
X0048911Y0041878D01*
X0048982Y0041825D01*
X0049051Y0041769D01*
X0049117Y0041710D01*
X0049180Y0041648D01*
X0049240Y0041584D01*
X0049298Y0041517D01*
X0049352Y0041447D01*
X0049404Y0041375D01*
X0049452Y0041301D01*
X0049497Y0041224D01*
X0049538Y0041146D01*
X0049576Y0041066D01*
X0049610Y0040985D01*
X0049641Y0040902D01*
X0049668Y0040817D01*
X0049691Y0040732D01*
X0049710Y0040646D01*
X0049726Y0040558D01*
X0049738Y0040471D01*
X0049746Y0040383D01*
X0049750Y0040294D01*
X0049750Y0040206D01*
X0049746Y0040117D01*
X0049738Y0040029D01*
X0049726Y0039942D01*
X0049710Y0039854D01*
X0049691Y0039768D01*
X0049668Y0039683D01*
X0049641Y0039598D01*
X0049610Y0039515D01*
X0049576Y0039434D01*
X0049538Y0039354D01*
X0049497Y0039276D01*
X0049452Y0039199D01*
X0049404Y0039125D01*
X0049352Y0039053D01*
X0049298Y0038983D01*
X0049240Y0038916D01*
X0049180Y0038852D01*
X0049117Y0038790D01*
X0049051Y0038731D01*
X0048982Y0038675D01*
X0048911Y0038622D01*
X0048838Y0038572D01*
X0048763Y0038525D01*
X0048685Y0038482D01*
X0048606Y0038443D01*
X0048526Y0038407D01*
X0048443Y0038374D01*
X0048360Y0038345D01*
X0048275Y0038320D01*
X0048189Y0038299D01*
X0048102Y0038281D01*
X0048015Y0038268D01*
X0047927Y0038258D01*
X0047838Y0038252D01*
X0047750Y0038250D01*
X0047750Y0034050D02*
X0047752Y0033974D01*
X0047758Y0033898D01*
X0047767Y0033823D01*
X0047781Y0033748D01*
X0047798Y0033674D01*
X0047819Y0033601D01*
X0047843Y0033529D01*
X0047872Y0033458D01*
X0047903Y0033389D01*
X0047938Y0033322D01*
X0047977Y0033257D01*
X0048019Y0033193D01*
X0048064Y0033132D01*
X0048112Y0033073D01*
X0048163Y0033017D01*
X0048217Y0032963D01*
X0048273Y0032912D01*
X0048332Y0032864D01*
X0048393Y0032819D01*
X0048457Y0032777D01*
X0048522Y0032738D01*
X0048589Y0032703D01*
X0048658Y0032672D01*
X0048729Y0032643D01*
X0048801Y0032619D01*
X0048874Y0032598D01*
X0048948Y0032581D01*
X0049023Y0032567D01*
X0049098Y0032558D01*
X0049174Y0032552D01*
X0049250Y0032550D01*
X0081250Y0032550D02*
X0081326Y0032552D01*
X0081402Y0032558D01*
X0081477Y0032567D01*
X0081552Y0032581D01*
X0081626Y0032598D01*
X0081699Y0032619D01*
X0081771Y0032643D01*
X0081842Y0032672D01*
X0081911Y0032703D01*
X0081978Y0032738D01*
X0082043Y0032777D01*
X0082107Y0032819D01*
X0082168Y0032864D01*
X0082227Y0032912D01*
X0082283Y0032963D01*
X0082337Y0033017D01*
X0082388Y0033073D01*
X0082436Y0033132D01*
X0082481Y0033193D01*
X0082523Y0033257D01*
X0082562Y0033322D01*
X0082597Y0033389D01*
X0082628Y0033458D01*
X0082657Y0033529D01*
X0082681Y0033601D01*
X0082702Y0033674D01*
X0082719Y0033748D01*
X0082733Y0033823D01*
X0082742Y0033898D01*
X0082748Y0033974D01*
X0082750Y0034050D01*
X0082750Y0046450D01*
X0082748Y0046526D01*
X0082742Y0046602D01*
X0082733Y0046677D01*
X0082719Y0046752D01*
X0082702Y0046826D01*
X0082681Y0046899D01*
X0082657Y0046971D01*
X0082628Y0047042D01*
X0082597Y0047111D01*
X0082562Y0047178D01*
X0082523Y0047243D01*
X0082481Y0047307D01*
X0082436Y0047368D01*
X0082388Y0047427D01*
X0082337Y0047483D01*
X0082283Y0047537D01*
X0082227Y0047588D01*
X0082168Y0047636D01*
X0082107Y0047681D01*
X0082043Y0047723D01*
X0081978Y0047762D01*
X0081911Y0047797D01*
X0081842Y0047828D01*
X0081771Y0047857D01*
X0081699Y0047881D01*
X0081626Y0047902D01*
X0081552Y0047919D01*
X0081477Y0047933D01*
X0081402Y0047942D01*
X0081326Y0047948D01*
X0081250Y0047950D01*
X0109000Y0046450D02*
X0109000Y0042250D01*
X0109000Y0038250D01*
X0109000Y0034050D01*
X0109002Y0033974D01*
X0109008Y0033898D01*
X0109017Y0033823D01*
X0109031Y0033748D01*
X0109048Y0033674D01*
X0109069Y0033601D01*
X0109093Y0033529D01*
X0109122Y0033458D01*
X0109153Y0033389D01*
X0109188Y0033322D01*
X0109227Y0033257D01*
X0109269Y0033193D01*
X0109314Y0033132D01*
X0109362Y0033073D01*
X0109413Y0033017D01*
X0109467Y0032963D01*
X0109523Y0032912D01*
X0109582Y0032864D01*
X0109643Y0032819D01*
X0109707Y0032777D01*
X0109772Y0032738D01*
X0109839Y0032703D01*
X0109908Y0032672D01*
X0109979Y0032643D01*
X0110051Y0032619D01*
X0110124Y0032598D01*
X0110198Y0032581D01*
X0110273Y0032567D01*
X0110348Y0032558D01*
X0110424Y0032552D01*
X0110500Y0032550D01*
X0109000Y0038250D02*
X0109088Y0038252D01*
X0109177Y0038258D01*
X0109265Y0038268D01*
X0109352Y0038281D01*
X0109439Y0038299D01*
X0109525Y0038320D01*
X0109610Y0038345D01*
X0109693Y0038374D01*
X0109776Y0038407D01*
X0109856Y0038443D01*
X0109935Y0038482D01*
X0110013Y0038525D01*
X0110088Y0038572D01*
X0110161Y0038622D01*
X0110232Y0038675D01*
X0110301Y0038731D01*
X0110367Y0038790D01*
X0110430Y0038852D01*
X0110490Y0038916D01*
X0110548Y0038983D01*
X0110602Y0039053D01*
X0110654Y0039125D01*
X0110702Y0039199D01*
X0110747Y0039276D01*
X0110788Y0039354D01*
X0110826Y0039434D01*
X0110860Y0039515D01*
X0110891Y0039598D01*
X0110918Y0039683D01*
X0110941Y0039768D01*
X0110960Y0039854D01*
X0110976Y0039942D01*
X0110988Y0040029D01*
X0110996Y0040117D01*
X0111000Y0040206D01*
X0111000Y0040294D01*
X0110996Y0040383D01*
X0110988Y0040471D01*
X0110976Y0040558D01*
X0110960Y0040646D01*
X0110941Y0040732D01*
X0110918Y0040817D01*
X0110891Y0040902D01*
X0110860Y0040985D01*
X0110826Y0041066D01*
X0110788Y0041146D01*
X0110747Y0041224D01*
X0110702Y0041301D01*
X0110654Y0041375D01*
X0110602Y0041447D01*
X0110548Y0041517D01*
X0110490Y0041584D01*
X0110430Y0041648D01*
X0110367Y0041710D01*
X0110301Y0041769D01*
X0110232Y0041825D01*
X0110161Y0041878D01*
X0110088Y0041928D01*
X0110013Y0041975D01*
X0109935Y0042018D01*
X0109856Y0042057D01*
X0109776Y0042093D01*
X0109693Y0042126D01*
X0109610Y0042155D01*
X0109525Y0042180D01*
X0109439Y0042201D01*
X0109352Y0042219D01*
X0109265Y0042232D01*
X0109177Y0042242D01*
X0109088Y0042248D01*
X0109000Y0042250D01*
X0109000Y0046450D02*
X0109002Y0046526D01*
X0109008Y0046602D01*
X0109017Y0046677D01*
X0109031Y0046752D01*
X0109048Y0046826D01*
X0109069Y0046899D01*
X0109093Y0046971D01*
X0109122Y0047042D01*
X0109153Y0047111D01*
X0109188Y0047178D01*
X0109227Y0047243D01*
X0109269Y0047307D01*
X0109314Y0047368D01*
X0109362Y0047427D01*
X0109413Y0047483D01*
X0109467Y0047537D01*
X0109523Y0047588D01*
X0109582Y0047636D01*
X0109643Y0047681D01*
X0109707Y0047723D01*
X0109772Y0047762D01*
X0109839Y0047797D01*
X0109908Y0047828D01*
X0109979Y0047857D01*
X0110051Y0047881D01*
X0110124Y0047902D01*
X0110198Y0047919D01*
X0110273Y0047933D01*
X0110348Y0047942D01*
X0110424Y0047948D01*
X0110500Y0047950D01*
X0147500Y0047950D02*
X0147576Y0047948D01*
X0147652Y0047942D01*
X0147727Y0047933D01*
X0147802Y0047919D01*
X0147876Y0047902D01*
X0147949Y0047881D01*
X0148021Y0047857D01*
X0148092Y0047828D01*
X0148161Y0047797D01*
X0148228Y0047762D01*
X0148293Y0047723D01*
X0148357Y0047681D01*
X0148418Y0047636D01*
X0148477Y0047588D01*
X0148533Y0047537D01*
X0148587Y0047483D01*
X0148638Y0047427D01*
X0148686Y0047368D01*
X0148731Y0047307D01*
X0148773Y0047243D01*
X0148812Y0047178D01*
X0148847Y0047111D01*
X0148878Y0047042D01*
X0148907Y0046971D01*
X0148931Y0046899D01*
X0148952Y0046826D01*
X0148969Y0046752D01*
X0148983Y0046677D01*
X0148992Y0046602D01*
X0148998Y0046526D01*
X0149000Y0046450D01*
X0149000Y0034050D01*
X0148998Y0033974D01*
X0148992Y0033898D01*
X0148983Y0033823D01*
X0148969Y0033748D01*
X0148952Y0033674D01*
X0148931Y0033601D01*
X0148907Y0033529D01*
X0148878Y0033458D01*
X0148847Y0033389D01*
X0148812Y0033322D01*
X0148773Y0033257D01*
X0148731Y0033193D01*
X0148686Y0033132D01*
X0148638Y0033073D01*
X0148587Y0033017D01*
X0148533Y0032963D01*
X0148477Y0032912D01*
X0148418Y0032864D01*
X0148357Y0032819D01*
X0148293Y0032777D01*
X0148228Y0032738D01*
X0148161Y0032703D01*
X0148092Y0032672D01*
X0148021Y0032643D01*
X0147949Y0032619D01*
X0147876Y0032598D01*
X0147802Y0032581D01*
X0147727Y0032567D01*
X0147652Y0032558D01*
X0147576Y0032552D01*
X0147500Y0032550D01*
X0197750Y0034050D02*
X0197750Y0038250D01*
X0197750Y0042250D01*
X0197750Y0046450D01*
X0197752Y0046526D01*
X0197758Y0046602D01*
X0197767Y0046677D01*
X0197781Y0046752D01*
X0197798Y0046826D01*
X0197819Y0046899D01*
X0197843Y0046971D01*
X0197872Y0047042D01*
X0197903Y0047111D01*
X0197938Y0047178D01*
X0197977Y0047243D01*
X0198019Y0047307D01*
X0198064Y0047368D01*
X0198112Y0047427D01*
X0198163Y0047483D01*
X0198217Y0047537D01*
X0198273Y0047588D01*
X0198332Y0047636D01*
X0198393Y0047681D01*
X0198457Y0047723D01*
X0198522Y0047762D01*
X0198589Y0047797D01*
X0198658Y0047828D01*
X0198729Y0047857D01*
X0198801Y0047881D01*
X0198874Y0047902D01*
X0198948Y0047919D01*
X0199023Y0047933D01*
X0199098Y0047942D01*
X0199174Y0047948D01*
X0199250Y0047950D01*
X0197750Y0042250D02*
X0197838Y0042248D01*
X0197927Y0042242D01*
X0198015Y0042232D01*
X0198102Y0042219D01*
X0198189Y0042201D01*
X0198275Y0042180D01*
X0198360Y0042155D01*
X0198443Y0042126D01*
X0198526Y0042093D01*
X0198606Y0042057D01*
X0198685Y0042018D01*
X0198763Y0041975D01*
X0198838Y0041928D01*
X0198911Y0041878D01*
X0198982Y0041825D01*
X0199051Y0041769D01*
X0199117Y0041710D01*
X0199180Y0041648D01*
X0199240Y0041584D01*
X0199298Y0041517D01*
X0199352Y0041447D01*
X0199404Y0041375D01*
X0199452Y0041301D01*
X0199497Y0041224D01*
X0199538Y0041146D01*
X0199576Y0041066D01*
X0199610Y0040985D01*
X0199641Y0040902D01*
X0199668Y0040817D01*
X0199691Y0040732D01*
X0199710Y0040646D01*
X0199726Y0040558D01*
X0199738Y0040471D01*
X0199746Y0040383D01*
X0199750Y0040294D01*
X0199750Y0040206D01*
X0199746Y0040117D01*
X0199738Y0040029D01*
X0199726Y0039942D01*
X0199710Y0039854D01*
X0199691Y0039768D01*
X0199668Y0039683D01*
X0199641Y0039598D01*
X0199610Y0039515D01*
X0199576Y0039434D01*
X0199538Y0039354D01*
X0199497Y0039276D01*
X0199452Y0039199D01*
X0199404Y0039125D01*
X0199352Y0039053D01*
X0199298Y0038983D01*
X0199240Y0038916D01*
X0199180Y0038852D01*
X0199117Y0038790D01*
X0199051Y0038731D01*
X0198982Y0038675D01*
X0198911Y0038622D01*
X0198838Y0038572D01*
X0198763Y0038525D01*
X0198685Y0038482D01*
X0198606Y0038443D01*
X0198526Y0038407D01*
X0198443Y0038374D01*
X0198360Y0038345D01*
X0198275Y0038320D01*
X0198189Y0038299D01*
X0198102Y0038281D01*
X0198015Y0038268D01*
X0197927Y0038258D01*
X0197838Y0038252D01*
X0197750Y0038250D01*
X0197750Y0034050D02*
X0197752Y0033974D01*
X0197758Y0033898D01*
X0197767Y0033823D01*
X0197781Y0033748D01*
X0197798Y0033674D01*
X0197819Y0033601D01*
X0197843Y0033529D01*
X0197872Y0033458D01*
X0197903Y0033389D01*
X0197938Y0033322D01*
X0197977Y0033257D01*
X0198019Y0033193D01*
X0198064Y0033132D01*
X0198112Y0033073D01*
X0198163Y0033017D01*
X0198217Y0032963D01*
X0198273Y0032912D01*
X0198332Y0032864D01*
X0198393Y0032819D01*
X0198457Y0032777D01*
X0198522Y0032738D01*
X0198589Y0032703D01*
X0198658Y0032672D01*
X0198729Y0032643D01*
X0198801Y0032619D01*
X0198874Y0032598D01*
X0198948Y0032581D01*
X0199023Y0032567D01*
X0199098Y0032558D01*
X0199174Y0032552D01*
X0199250Y0032550D01*
X0236250Y0032550D02*
X0236326Y0032552D01*
X0236402Y0032558D01*
X0236477Y0032567D01*
X0236552Y0032581D01*
X0236626Y0032598D01*
X0236699Y0032619D01*
X0236771Y0032643D01*
X0236842Y0032672D01*
X0236911Y0032703D01*
X0236978Y0032738D01*
X0237043Y0032777D01*
X0237107Y0032819D01*
X0237168Y0032864D01*
X0237227Y0032912D01*
X0237283Y0032963D01*
X0237337Y0033017D01*
X0237388Y0033073D01*
X0237436Y0033132D01*
X0237481Y0033193D01*
X0237523Y0033257D01*
X0237562Y0033322D01*
X0237597Y0033389D01*
X0237628Y0033458D01*
X0237657Y0033529D01*
X0237681Y0033601D01*
X0237702Y0033674D01*
X0237719Y0033748D01*
X0237733Y0033823D01*
X0237742Y0033898D01*
X0237748Y0033974D01*
X0237750Y0034050D01*
X0237750Y0046450D01*
X0237748Y0046526D01*
X0237742Y0046602D01*
X0237733Y0046677D01*
X0237719Y0046752D01*
X0237702Y0046826D01*
X0237681Y0046899D01*
X0237657Y0046971D01*
X0237628Y0047042D01*
X0237597Y0047111D01*
X0237562Y0047178D01*
X0237523Y0047243D01*
X0237481Y0047307D01*
X0237436Y0047368D01*
X0237388Y0047427D01*
X0237337Y0047483D01*
X0237283Y0047537D01*
X0237227Y0047588D01*
X0237168Y0047636D01*
X0237107Y0047681D01*
X0237043Y0047723D01*
X0236978Y0047762D01*
X0236911Y0047797D01*
X0236842Y0047828D01*
X0236771Y0047857D01*
X0236699Y0047881D01*
X0236626Y0047902D01*
X0236552Y0047919D01*
X0236477Y0047933D01*
X0236402Y0047942D01*
X0236326Y0047948D01*
X0236250Y0047950D01*
X0027320Y0058753D02*
X0023050Y0058753D01*
X0025185Y0060888D02*
X0025185Y0056618D01*
D11*
X0025635Y0065750D02*
X0022883Y0068502D01*
X0021966Y0067585D02*
X0025635Y0071255D01*
X0027490Y0070337D02*
X0027490Y0069420D01*
X0028408Y0068502D01*
X0030243Y0068502D01*
X0031160Y0067585D01*
X0031160Y0066667D01*
X0030243Y0065750D01*
X0028408Y0065750D01*
X0027490Y0066667D01*
X0033015Y0066667D02*
X0033933Y0065750D01*
X0035767Y0065750D01*
X0036685Y0066667D01*
X0038540Y0066667D02*
X0039457Y0065750D01*
X0041292Y0065750D01*
X0042210Y0066667D01*
X0044065Y0065750D02*
X0044065Y0071255D01*
X0046817Y0071255D01*
X0047734Y0070337D01*
X0047734Y0068502D01*
X0046817Y0067585D01*
X0044065Y0067585D01*
X0045899Y0067585D02*
X0047734Y0065750D01*
X0049589Y0065750D02*
X0053259Y0065750D01*
X0055114Y0065750D02*
X0055114Y0071255D01*
X0057866Y0071255D01*
X0058784Y0070337D01*
X0058784Y0068502D01*
X0057866Y0067585D01*
X0055114Y0067585D01*
X0051424Y0068502D02*
X0049589Y0068502D01*
X0049589Y0065750D02*
X0049589Y0071255D01*
X0053259Y0071255D01*
X0042210Y0070337D02*
X0041292Y0071255D01*
X0039457Y0071255D01*
X0038540Y0070337D01*
X0038540Y0066667D01*
X0033015Y0066667D02*
X0033015Y0070337D01*
X0033933Y0071255D01*
X0035767Y0071255D01*
X0036685Y0070337D01*
X0031160Y0070337D02*
X0030243Y0071255D01*
X0028408Y0071255D01*
X0027490Y0070337D01*
X0021966Y0071255D02*
X0021966Y0065750D01*
X0066163Y0069420D02*
X0067998Y0065750D01*
X0069833Y0069420D01*
X0071688Y0069420D02*
X0073523Y0071255D01*
X0073523Y0065750D01*
X0071688Y0065750D02*
X0075358Y0065750D01*
X0077213Y0065750D02*
X0077213Y0066667D01*
X0078130Y0066667D01*
X0078130Y0065750D01*
X0077213Y0065750D01*
X0079975Y0066667D02*
X0083645Y0070337D01*
X0083645Y0066667D01*
X0082728Y0065750D01*
X0080893Y0065750D01*
X0079975Y0066667D01*
X0079975Y0070337D01*
X0080893Y0071255D01*
X0082728Y0071255D01*
X0083645Y0070337D01*
X0103497Y0046176D02*
X0102746Y0045425D01*
X0102746Y0043924D01*
X0103497Y0043173D01*
X0104247Y0046176D02*
X0107250Y0043173D01*
X0107250Y0046176D01*
X0104247Y0046176D02*
X0103497Y0046176D01*
X0111750Y0042004D02*
X0114753Y0042004D01*
X0114753Y0041253D01*
X0111750Y0038251D01*
X0111750Y0037500D01*
X0107250Y0037001D02*
X0107250Y0035500D01*
X0107250Y0036251D02*
X0102746Y0036251D01*
X0102746Y0037001D02*
X0102746Y0035500D01*
X0103497Y0038569D02*
X0106499Y0038569D01*
X0107250Y0039320D01*
X0107250Y0040821D01*
X0106499Y0041572D01*
X0103497Y0041572D02*
X0102746Y0040821D01*
X0102746Y0039320D01*
X0103497Y0038569D01*
X0116354Y0039752D02*
X0119356Y0039752D01*
X0120958Y0039752D02*
X0123960Y0039752D01*
X0125562Y0041253D02*
X0125562Y0038251D01*
X0126312Y0037500D01*
X0127814Y0037500D01*
X0128564Y0038251D01*
X0130166Y0038251D02*
X0130916Y0037500D01*
X0132418Y0037500D01*
X0133168Y0038251D01*
X0133168Y0039001D01*
X0132418Y0039752D01*
X0130166Y0039752D01*
X0130166Y0038251D01*
X0130166Y0039752D02*
X0131667Y0041253D01*
X0133168Y0042004D01*
X0134770Y0042004D02*
X0137772Y0042004D01*
X0137772Y0041253D01*
X0134770Y0038251D01*
X0134770Y0037500D01*
X0139374Y0038251D02*
X0140124Y0037500D01*
X0141625Y0037500D01*
X0142376Y0038251D01*
X0142376Y0041253D01*
X0139374Y0038251D01*
X0139374Y0041253D01*
X0140124Y0042004D01*
X0141625Y0042004D01*
X0142376Y0041253D01*
X0143977Y0042004D02*
X0146229Y0042004D01*
X0146980Y0041253D01*
X0146980Y0038251D01*
X0146229Y0037500D01*
X0143977Y0037500D01*
X0143977Y0042004D01*
X0128564Y0041253D02*
X0127814Y0042004D01*
X0126312Y0042004D01*
X0125562Y0041253D01*
X0123960Y0042004D02*
X0123960Y0037500D01*
X0120958Y0037500D02*
X0120958Y0042004D01*
X0118606Y0042004D02*
X0116354Y0039752D01*
X0118606Y0037500D02*
X0118606Y0042004D01*
X0081126Y0041253D02*
X0081126Y0038251D01*
X0080375Y0037500D01*
X0078124Y0037500D01*
X0078124Y0042004D01*
X0080375Y0042004D01*
X0081126Y0041253D01*
X0076522Y0041253D02*
X0076522Y0040503D01*
X0073520Y0037500D01*
X0076522Y0037500D01*
X0071918Y0038251D02*
X0071168Y0037500D01*
X0069666Y0037500D01*
X0068916Y0038251D01*
X0071918Y0041253D01*
X0071918Y0038251D01*
X0068916Y0038251D02*
X0068916Y0041253D01*
X0069666Y0042004D01*
X0071168Y0042004D01*
X0071918Y0041253D01*
X0073520Y0041253D02*
X0074270Y0042004D01*
X0075772Y0042004D01*
X0076522Y0041253D01*
X0067314Y0041253D02*
X0066564Y0042004D01*
X0065062Y0042004D01*
X0064312Y0041253D01*
X0064312Y0038251D01*
X0065062Y0037500D01*
X0066564Y0037500D01*
X0067314Y0038251D01*
X0062710Y0037500D02*
X0062710Y0042004D01*
X0059708Y0042004D02*
X0059708Y0037500D01*
X0057356Y0037500D02*
X0057356Y0042004D01*
X0055104Y0039752D01*
X0058106Y0039752D01*
X0059708Y0039752D02*
X0062710Y0039752D01*
X0053503Y0041253D02*
X0050500Y0038251D01*
X0050500Y0037500D01*
X0046000Y0037001D02*
X0046000Y0035500D01*
X0046000Y0036251D02*
X0041496Y0036251D01*
X0041496Y0037001D02*
X0041496Y0035500D01*
X0042247Y0038569D02*
X0045249Y0038569D01*
X0046000Y0039320D01*
X0046000Y0040821D01*
X0045249Y0041572D01*
X0042247Y0041572D02*
X0041496Y0040821D01*
X0041496Y0039320D01*
X0042247Y0038569D01*
X0053503Y0041253D02*
X0053503Y0042004D01*
X0050500Y0042004D01*
X0046000Y0043173D02*
X0046000Y0046176D01*
X0046000Y0044674D02*
X0041496Y0044674D01*
X0042997Y0043173D01*
X0150778Y0012755D02*
X0153530Y0012755D01*
X0154447Y0011837D01*
X0154447Y0010002D01*
X0153530Y0009085D01*
X0150778Y0009085D01*
X0152612Y0009085D02*
X0154447Y0007250D01*
X0156302Y0007250D02*
X0159055Y0007250D01*
X0159972Y0008167D01*
X0159972Y0009085D01*
X0159055Y0010002D01*
X0156302Y0010002D01*
X0159055Y0010002D02*
X0159972Y0010920D01*
X0159972Y0011837D01*
X0159055Y0012755D01*
X0156302Y0012755D01*
X0156302Y0007250D01*
X0150778Y0007250D02*
X0150778Y0012755D01*
X0161827Y0011837D02*
X0161827Y0010920D01*
X0162744Y0010002D01*
X0164579Y0010002D01*
X0165497Y0009085D01*
X0165497Y0008167D01*
X0164579Y0007250D01*
X0162744Y0007250D01*
X0161827Y0008167D01*
X0167352Y0008167D02*
X0168269Y0007250D01*
X0170104Y0007250D01*
X0171021Y0008167D01*
X0167352Y0008167D02*
X0167352Y0011837D01*
X0168269Y0012755D01*
X0170104Y0012755D01*
X0171021Y0011837D01*
X0165497Y0011837D02*
X0164579Y0012755D01*
X0162744Y0012755D01*
X0161827Y0011837D01*
X0178401Y0011837D02*
X0179319Y0012755D01*
X0181153Y0012755D01*
X0182071Y0011837D01*
X0182071Y0010920D01*
X0178401Y0007250D01*
X0182071Y0007250D01*
X0183926Y0008167D02*
X0187596Y0011837D01*
X0187596Y0008167D01*
X0186678Y0007250D01*
X0184843Y0007250D01*
X0183926Y0008167D01*
X0183926Y0011837D01*
X0184843Y0012755D01*
X0186678Y0012755D01*
X0187596Y0011837D01*
X0189451Y0011837D02*
X0190368Y0012755D01*
X0192203Y0012755D01*
X0193120Y0011837D01*
X0193120Y0010920D01*
X0189451Y0007250D01*
X0193120Y0007250D01*
X0194975Y0007250D02*
X0198645Y0007250D01*
X0196810Y0007250D02*
X0196810Y0012755D01*
X0194975Y0010920D01*
X0196000Y0035500D02*
X0196000Y0037001D01*
X0196000Y0036251D02*
X0191496Y0036251D01*
X0191496Y0037001D02*
X0191496Y0035500D01*
X0192247Y0038569D02*
X0195249Y0038569D01*
X0196000Y0039320D01*
X0196000Y0040821D01*
X0195249Y0041572D01*
X0192247Y0041572D02*
X0191496Y0040821D01*
X0191496Y0039320D01*
X0192247Y0038569D01*
X0200500Y0038251D02*
X0200500Y0037500D01*
X0200500Y0038251D02*
X0203503Y0041253D01*
X0203503Y0042004D01*
X0200500Y0042004D01*
X0196000Y0043924D02*
X0195249Y0043173D01*
X0196000Y0043924D02*
X0196000Y0045425D01*
X0195249Y0046176D01*
X0194499Y0046176D01*
X0193748Y0045425D01*
X0193748Y0044674D01*
X0193748Y0045425D02*
X0192997Y0046176D01*
X0192247Y0046176D01*
X0191496Y0045425D01*
X0191496Y0043924D01*
X0192247Y0043173D01*
X0205104Y0039752D02*
X0208106Y0039752D01*
X0209708Y0039752D02*
X0212710Y0039752D01*
X0214312Y0041253D02*
X0214312Y0038251D01*
X0215062Y0037500D01*
X0216564Y0037500D01*
X0217314Y0038251D01*
X0218916Y0038251D02*
X0219666Y0037500D01*
X0221168Y0037500D01*
X0221918Y0038251D01*
X0221918Y0039001D01*
X0221168Y0039752D01*
X0218916Y0039752D01*
X0218916Y0038251D01*
X0218916Y0039752D02*
X0220417Y0041253D01*
X0221918Y0042004D01*
X0223520Y0042004D02*
X0226522Y0042004D01*
X0226522Y0041253D01*
X0223520Y0038251D01*
X0223520Y0037500D01*
X0228124Y0038251D02*
X0228874Y0037500D01*
X0230375Y0037500D01*
X0231126Y0038251D01*
X0231126Y0041253D01*
X0228124Y0038251D01*
X0228124Y0041253D01*
X0228874Y0042004D01*
X0230375Y0042004D01*
X0231126Y0041253D01*
X0232727Y0042004D02*
X0234979Y0042004D01*
X0235730Y0041253D01*
X0235730Y0038251D01*
X0234979Y0037500D01*
X0232727Y0037500D01*
X0232727Y0042004D01*
X0217314Y0041253D02*
X0216564Y0042004D01*
X0215062Y0042004D01*
X0214312Y0041253D01*
X0212710Y0042004D02*
X0212710Y0037500D01*
X0209708Y0037500D02*
X0209708Y0042004D01*
X0207356Y0042004D02*
X0205104Y0039752D01*
X0207356Y0037500D02*
X0207356Y0042004D01*
X0188395Y0063750D02*
X0188395Y0069255D01*
X0184725Y0069255D02*
X0184725Y0063750D01*
X0186560Y0065585D01*
X0188395Y0063750D01*
D12*
X0007750Y0004000D02*
X0004000Y0007750D01*
X0004000Y0072750D01*
X0007750Y0076500D01*
X0247750Y0076500D01*
X0251500Y0072750D01*
X0251500Y0007750D01*
X0247750Y0004000D01*
X0007750Y0004000D01*
X0007750Y0010250D02*
X0007752Y0010110D01*
X0007758Y0009970D01*
X0007768Y0009830D01*
X0007781Y0009690D01*
X0007799Y0009551D01*
X0007821Y0009412D01*
X0007846Y0009275D01*
X0007875Y0009137D01*
X0007908Y0009001D01*
X0007945Y0008866D01*
X0007986Y0008732D01*
X0008031Y0008599D01*
X0008079Y0008467D01*
X0008131Y0008337D01*
X0008186Y0008208D01*
X0008245Y0008081D01*
X0008308Y0007955D01*
X0008374Y0007831D01*
X0008443Y0007710D01*
X0008516Y0007590D01*
X0008593Y0007472D01*
X0008672Y0007357D01*
X0008755Y0007243D01*
X0008841Y0007133D01*
X0008930Y0007024D01*
X0009022Y0006918D01*
X0009117Y0006815D01*
X0009214Y0006714D01*
X0009315Y0006617D01*
X0009418Y0006522D01*
X0009524Y0006430D01*
X0009633Y0006341D01*
X0009743Y0006255D01*
X0009857Y0006172D01*
X0009972Y0006093D01*
X0010090Y0006016D01*
X0010210Y0005943D01*
X0010331Y0005874D01*
X0010455Y0005808D01*
X0010581Y0005745D01*
X0010708Y0005686D01*
X0010837Y0005631D01*
X0010967Y0005579D01*
X0011099Y0005531D01*
X0011232Y0005486D01*
X0011366Y0005445D01*
X0011501Y0005408D01*
X0011637Y0005375D01*
X0011775Y0005346D01*
X0011912Y0005321D01*
X0012051Y0005299D01*
X0012190Y0005281D01*
X0012330Y0005268D01*
X0012470Y0005258D01*
X0012610Y0005252D01*
X0012750Y0005250D01*
X0012890Y0005252D01*
X0013030Y0005258D01*
X0013170Y0005268D01*
X0013310Y0005281D01*
X0013449Y0005299D01*
X0013588Y0005321D01*
X0013725Y0005346D01*
X0013863Y0005375D01*
X0013999Y0005408D01*
X0014134Y0005445D01*
X0014268Y0005486D01*
X0014401Y0005531D01*
X0014533Y0005579D01*
X0014663Y0005631D01*
X0014792Y0005686D01*
X0014919Y0005745D01*
X0015045Y0005808D01*
X0015169Y0005874D01*
X0015290Y0005943D01*
X0015410Y0006016D01*
X0015528Y0006093D01*
X0015643Y0006172D01*
X0015757Y0006255D01*
X0015867Y0006341D01*
X0015976Y0006430D01*
X0016082Y0006522D01*
X0016185Y0006617D01*
X0016286Y0006714D01*
X0016383Y0006815D01*
X0016478Y0006918D01*
X0016570Y0007024D01*
X0016659Y0007133D01*
X0016745Y0007243D01*
X0016828Y0007357D01*
X0016907Y0007472D01*
X0016984Y0007590D01*
X0017057Y0007710D01*
X0017126Y0007831D01*
X0017192Y0007955D01*
X0017255Y0008081D01*
X0017314Y0008208D01*
X0017369Y0008337D01*
X0017421Y0008467D01*
X0017469Y0008599D01*
X0017514Y0008732D01*
X0017555Y0008866D01*
X0017592Y0009001D01*
X0017625Y0009137D01*
X0017654Y0009275D01*
X0017679Y0009412D01*
X0017701Y0009551D01*
X0017719Y0009690D01*
X0017732Y0009830D01*
X0017742Y0009970D01*
X0017748Y0010110D01*
X0017750Y0010250D01*
X0011500Y0029000D02*
X0024000Y0029000D01*
X0024000Y0047750D01*
X0011500Y0047750D01*
X0011500Y0051500D01*
X0024000Y0051500D01*
X0024000Y0047750D01*
X0011500Y0047750D02*
X0011500Y0029000D01*
X0097750Y0010250D02*
X0097752Y0010110D01*
X0097758Y0009970D01*
X0097768Y0009830D01*
X0097781Y0009690D01*
X0097799Y0009551D01*
X0097821Y0009412D01*
X0097846Y0009275D01*
X0097875Y0009137D01*
X0097908Y0009001D01*
X0097945Y0008866D01*
X0097986Y0008732D01*
X0098031Y0008599D01*
X0098079Y0008467D01*
X0098131Y0008337D01*
X0098186Y0008208D01*
X0098245Y0008081D01*
X0098308Y0007955D01*
X0098374Y0007831D01*
X0098443Y0007710D01*
X0098516Y0007590D01*
X0098593Y0007472D01*
X0098672Y0007357D01*
X0098755Y0007243D01*
X0098841Y0007133D01*
X0098930Y0007024D01*
X0099022Y0006918D01*
X0099117Y0006815D01*
X0099214Y0006714D01*
X0099315Y0006617D01*
X0099418Y0006522D01*
X0099524Y0006430D01*
X0099633Y0006341D01*
X0099743Y0006255D01*
X0099857Y0006172D01*
X0099972Y0006093D01*
X0100090Y0006016D01*
X0100210Y0005943D01*
X0100331Y0005874D01*
X0100455Y0005808D01*
X0100581Y0005745D01*
X0100708Y0005686D01*
X0100837Y0005631D01*
X0100967Y0005579D01*
X0101099Y0005531D01*
X0101232Y0005486D01*
X0101366Y0005445D01*
X0101501Y0005408D01*
X0101637Y0005375D01*
X0101775Y0005346D01*
X0101912Y0005321D01*
X0102051Y0005299D01*
X0102190Y0005281D01*
X0102330Y0005268D01*
X0102470Y0005258D01*
X0102610Y0005252D01*
X0102750Y0005250D01*
X0102890Y0005252D01*
X0103030Y0005258D01*
X0103170Y0005268D01*
X0103310Y0005281D01*
X0103449Y0005299D01*
X0103588Y0005321D01*
X0103725Y0005346D01*
X0103863Y0005375D01*
X0103999Y0005408D01*
X0104134Y0005445D01*
X0104268Y0005486D01*
X0104401Y0005531D01*
X0104533Y0005579D01*
X0104663Y0005631D01*
X0104792Y0005686D01*
X0104919Y0005745D01*
X0105045Y0005808D01*
X0105169Y0005874D01*
X0105290Y0005943D01*
X0105410Y0006016D01*
X0105528Y0006093D01*
X0105643Y0006172D01*
X0105757Y0006255D01*
X0105867Y0006341D01*
X0105976Y0006430D01*
X0106082Y0006522D01*
X0106185Y0006617D01*
X0106286Y0006714D01*
X0106383Y0006815D01*
X0106478Y0006918D01*
X0106570Y0007024D01*
X0106659Y0007133D01*
X0106745Y0007243D01*
X0106828Y0007357D01*
X0106907Y0007472D01*
X0106984Y0007590D01*
X0107057Y0007710D01*
X0107126Y0007831D01*
X0107192Y0007955D01*
X0107255Y0008081D01*
X0107314Y0008208D01*
X0107369Y0008337D01*
X0107421Y0008467D01*
X0107469Y0008599D01*
X0107514Y0008732D01*
X0107555Y0008866D01*
X0107592Y0009001D01*
X0107625Y0009137D01*
X0107654Y0009275D01*
X0107679Y0009412D01*
X0107701Y0009551D01*
X0107719Y0009690D01*
X0107732Y0009830D01*
X0107742Y0009970D01*
X0107748Y0010110D01*
X0107750Y0010250D01*
X0117750Y0010250D02*
X0117752Y0010110D01*
X0117758Y0009970D01*
X0117768Y0009830D01*
X0117781Y0009690D01*
X0117799Y0009551D01*
X0117821Y0009412D01*
X0117846Y0009275D01*
X0117875Y0009137D01*
X0117908Y0009001D01*
X0117945Y0008866D01*
X0117986Y0008732D01*
X0118031Y0008599D01*
X0118079Y0008467D01*
X0118131Y0008337D01*
X0118186Y0008208D01*
X0118245Y0008081D01*
X0118308Y0007955D01*
X0118374Y0007831D01*
X0118443Y0007710D01*
X0118516Y0007590D01*
X0118593Y0007472D01*
X0118672Y0007357D01*
X0118755Y0007243D01*
X0118841Y0007133D01*
X0118930Y0007024D01*
X0119022Y0006918D01*
X0119117Y0006815D01*
X0119214Y0006714D01*
X0119315Y0006617D01*
X0119418Y0006522D01*
X0119524Y0006430D01*
X0119633Y0006341D01*
X0119743Y0006255D01*
X0119857Y0006172D01*
X0119972Y0006093D01*
X0120090Y0006016D01*
X0120210Y0005943D01*
X0120331Y0005874D01*
X0120455Y0005808D01*
X0120581Y0005745D01*
X0120708Y0005686D01*
X0120837Y0005631D01*
X0120967Y0005579D01*
X0121099Y0005531D01*
X0121232Y0005486D01*
X0121366Y0005445D01*
X0121501Y0005408D01*
X0121637Y0005375D01*
X0121775Y0005346D01*
X0121912Y0005321D01*
X0122051Y0005299D01*
X0122190Y0005281D01*
X0122330Y0005268D01*
X0122470Y0005258D01*
X0122610Y0005252D01*
X0122750Y0005250D01*
X0122890Y0005252D01*
X0123030Y0005258D01*
X0123170Y0005268D01*
X0123310Y0005281D01*
X0123449Y0005299D01*
X0123588Y0005321D01*
X0123725Y0005346D01*
X0123863Y0005375D01*
X0123999Y0005408D01*
X0124134Y0005445D01*
X0124268Y0005486D01*
X0124401Y0005531D01*
X0124533Y0005579D01*
X0124663Y0005631D01*
X0124792Y0005686D01*
X0124919Y0005745D01*
X0125045Y0005808D01*
X0125169Y0005874D01*
X0125290Y0005943D01*
X0125410Y0006016D01*
X0125528Y0006093D01*
X0125643Y0006172D01*
X0125757Y0006255D01*
X0125867Y0006341D01*
X0125976Y0006430D01*
X0126082Y0006522D01*
X0126185Y0006617D01*
X0126286Y0006714D01*
X0126383Y0006815D01*
X0126478Y0006918D01*
X0126570Y0007024D01*
X0126659Y0007133D01*
X0126745Y0007243D01*
X0126828Y0007357D01*
X0126907Y0007472D01*
X0126984Y0007590D01*
X0127057Y0007710D01*
X0127126Y0007831D01*
X0127192Y0007955D01*
X0127255Y0008081D01*
X0127314Y0008208D01*
X0127369Y0008337D01*
X0127421Y0008467D01*
X0127469Y0008599D01*
X0127514Y0008732D01*
X0127555Y0008866D01*
X0127592Y0009001D01*
X0127625Y0009137D01*
X0127654Y0009275D01*
X0127679Y0009412D01*
X0127701Y0009551D01*
X0127719Y0009690D01*
X0127732Y0009830D01*
X0127742Y0009970D01*
X0127748Y0010110D01*
X0127750Y0010250D01*
X0207750Y0010250D02*
X0207752Y0010110D01*
X0207758Y0009970D01*
X0207768Y0009830D01*
X0207781Y0009690D01*
X0207799Y0009551D01*
X0207821Y0009412D01*
X0207846Y0009275D01*
X0207875Y0009137D01*
X0207908Y0009001D01*
X0207945Y0008866D01*
X0207986Y0008732D01*
X0208031Y0008599D01*
X0208079Y0008467D01*
X0208131Y0008337D01*
X0208186Y0008208D01*
X0208245Y0008081D01*
X0208308Y0007955D01*
X0208374Y0007831D01*
X0208443Y0007710D01*
X0208516Y0007590D01*
X0208593Y0007472D01*
X0208672Y0007357D01*
X0208755Y0007243D01*
X0208841Y0007133D01*
X0208930Y0007024D01*
X0209022Y0006918D01*
X0209117Y0006815D01*
X0209214Y0006714D01*
X0209315Y0006617D01*
X0209418Y0006522D01*
X0209524Y0006430D01*
X0209633Y0006341D01*
X0209743Y0006255D01*
X0209857Y0006172D01*
X0209972Y0006093D01*
X0210090Y0006016D01*
X0210210Y0005943D01*
X0210331Y0005874D01*
X0210455Y0005808D01*
X0210581Y0005745D01*
X0210708Y0005686D01*
X0210837Y0005631D01*
X0210967Y0005579D01*
X0211099Y0005531D01*
X0211232Y0005486D01*
X0211366Y0005445D01*
X0211501Y0005408D01*
X0211637Y0005375D01*
X0211775Y0005346D01*
X0211912Y0005321D01*
X0212051Y0005299D01*
X0212190Y0005281D01*
X0212330Y0005268D01*
X0212470Y0005258D01*
X0212610Y0005252D01*
X0212750Y0005250D01*
X0212890Y0005252D01*
X0213030Y0005258D01*
X0213170Y0005268D01*
X0213310Y0005281D01*
X0213449Y0005299D01*
X0213588Y0005321D01*
X0213725Y0005346D01*
X0213863Y0005375D01*
X0213999Y0005408D01*
X0214134Y0005445D01*
X0214268Y0005486D01*
X0214401Y0005531D01*
X0214533Y0005579D01*
X0214663Y0005631D01*
X0214792Y0005686D01*
X0214919Y0005745D01*
X0215045Y0005808D01*
X0215169Y0005874D01*
X0215290Y0005943D01*
X0215410Y0006016D01*
X0215528Y0006093D01*
X0215643Y0006172D01*
X0215757Y0006255D01*
X0215867Y0006341D01*
X0215976Y0006430D01*
X0216082Y0006522D01*
X0216185Y0006617D01*
X0216286Y0006714D01*
X0216383Y0006815D01*
X0216478Y0006918D01*
X0216570Y0007024D01*
X0216659Y0007133D01*
X0216745Y0007243D01*
X0216828Y0007357D01*
X0216907Y0007472D01*
X0216984Y0007590D01*
X0217057Y0007710D01*
X0217126Y0007831D01*
X0217192Y0007955D01*
X0217255Y0008081D01*
X0217314Y0008208D01*
X0217369Y0008337D01*
X0217421Y0008467D01*
X0217469Y0008599D01*
X0217514Y0008732D01*
X0217555Y0008866D01*
X0217592Y0009001D01*
X0217625Y0009137D01*
X0217654Y0009275D01*
X0217679Y0009412D01*
X0217701Y0009551D01*
X0217719Y0009690D01*
X0217732Y0009830D01*
X0217742Y0009970D01*
X0217748Y0010110D01*
X0217750Y0010250D01*
X0217752Y0010110D01*
X0217758Y0009970D01*
X0217768Y0009830D01*
X0217781Y0009690D01*
X0217799Y0009551D01*
X0217821Y0009412D01*
X0217846Y0009275D01*
X0217875Y0009137D01*
X0217908Y0009001D01*
X0217945Y0008866D01*
X0217986Y0008732D01*
X0218031Y0008599D01*
X0218079Y0008467D01*
X0218131Y0008337D01*
X0218186Y0008208D01*
X0218245Y0008081D01*
X0218308Y0007955D01*
X0218374Y0007831D01*
X0218443Y0007710D01*
X0218516Y0007590D01*
X0218593Y0007472D01*
X0218672Y0007357D01*
X0218755Y0007243D01*
X0218841Y0007133D01*
X0218930Y0007024D01*
X0219022Y0006918D01*
X0219117Y0006815D01*
X0219214Y0006714D01*
X0219315Y0006617D01*
X0219418Y0006522D01*
X0219524Y0006430D01*
X0219633Y0006341D01*
X0219743Y0006255D01*
X0219857Y0006172D01*
X0219972Y0006093D01*
X0220090Y0006016D01*
X0220210Y0005943D01*
X0220331Y0005874D01*
X0220455Y0005808D01*
X0220581Y0005745D01*
X0220708Y0005686D01*
X0220837Y0005631D01*
X0220967Y0005579D01*
X0221099Y0005531D01*
X0221232Y0005486D01*
X0221366Y0005445D01*
X0221501Y0005408D01*
X0221637Y0005375D01*
X0221775Y0005346D01*
X0221912Y0005321D01*
X0222051Y0005299D01*
X0222190Y0005281D01*
X0222330Y0005268D01*
X0222470Y0005258D01*
X0222610Y0005252D01*
X0222750Y0005250D01*
X0222890Y0005252D01*
X0223030Y0005258D01*
X0223170Y0005268D01*
X0223310Y0005281D01*
X0223449Y0005299D01*
X0223588Y0005321D01*
X0223725Y0005346D01*
X0223863Y0005375D01*
X0223999Y0005408D01*
X0224134Y0005445D01*
X0224268Y0005486D01*
X0224401Y0005531D01*
X0224533Y0005579D01*
X0224663Y0005631D01*
X0224792Y0005686D01*
X0224919Y0005745D01*
X0225045Y0005808D01*
X0225169Y0005874D01*
X0225290Y0005943D01*
X0225410Y0006016D01*
X0225528Y0006093D01*
X0225643Y0006172D01*
X0225757Y0006255D01*
X0225867Y0006341D01*
X0225976Y0006430D01*
X0226082Y0006522D01*
X0226185Y0006617D01*
X0226286Y0006714D01*
X0226383Y0006815D01*
X0226478Y0006918D01*
X0226570Y0007024D01*
X0226659Y0007133D01*
X0226745Y0007243D01*
X0226828Y0007357D01*
X0226907Y0007472D01*
X0226984Y0007590D01*
X0227057Y0007710D01*
X0227126Y0007831D01*
X0227192Y0007955D01*
X0227255Y0008081D01*
X0227314Y0008208D01*
X0227369Y0008337D01*
X0227421Y0008467D01*
X0227469Y0008599D01*
X0227514Y0008732D01*
X0227555Y0008866D01*
X0227592Y0009001D01*
X0227625Y0009137D01*
X0227654Y0009275D01*
X0227679Y0009412D01*
X0227701Y0009551D01*
X0227719Y0009690D01*
X0227732Y0009830D01*
X0227742Y0009970D01*
X0227748Y0010110D01*
X0227750Y0010250D01*
X0227752Y0010110D01*
X0227758Y0009970D01*
X0227768Y0009830D01*
X0227781Y0009690D01*
X0227799Y0009551D01*
X0227821Y0009412D01*
X0227846Y0009275D01*
X0227875Y0009137D01*
X0227908Y0009001D01*
X0227945Y0008866D01*
X0227986Y0008732D01*
X0228031Y0008599D01*
X0228079Y0008467D01*
X0228131Y0008337D01*
X0228186Y0008208D01*
X0228245Y0008081D01*
X0228308Y0007955D01*
X0228374Y0007831D01*
X0228443Y0007710D01*
X0228516Y0007590D01*
X0228593Y0007472D01*
X0228672Y0007357D01*
X0228755Y0007243D01*
X0228841Y0007133D01*
X0228930Y0007024D01*
X0229022Y0006918D01*
X0229117Y0006815D01*
X0229214Y0006714D01*
X0229315Y0006617D01*
X0229418Y0006522D01*
X0229524Y0006430D01*
X0229633Y0006341D01*
X0229743Y0006255D01*
X0229857Y0006172D01*
X0229972Y0006093D01*
X0230090Y0006016D01*
X0230210Y0005943D01*
X0230331Y0005874D01*
X0230455Y0005808D01*
X0230581Y0005745D01*
X0230708Y0005686D01*
X0230837Y0005631D01*
X0230967Y0005579D01*
X0231099Y0005531D01*
X0231232Y0005486D01*
X0231366Y0005445D01*
X0231501Y0005408D01*
X0231637Y0005375D01*
X0231775Y0005346D01*
X0231912Y0005321D01*
X0232051Y0005299D01*
X0232190Y0005281D01*
X0232330Y0005268D01*
X0232470Y0005258D01*
X0232610Y0005252D01*
X0232750Y0005250D01*
X0232890Y0005252D01*
X0233030Y0005258D01*
X0233170Y0005268D01*
X0233310Y0005281D01*
X0233449Y0005299D01*
X0233588Y0005321D01*
X0233725Y0005346D01*
X0233863Y0005375D01*
X0233999Y0005408D01*
X0234134Y0005445D01*
X0234268Y0005486D01*
X0234401Y0005531D01*
X0234533Y0005579D01*
X0234663Y0005631D01*
X0234792Y0005686D01*
X0234919Y0005745D01*
X0235045Y0005808D01*
X0235169Y0005874D01*
X0235290Y0005943D01*
X0235410Y0006016D01*
X0235528Y0006093D01*
X0235643Y0006172D01*
X0235757Y0006255D01*
X0235867Y0006341D01*
X0235976Y0006430D01*
X0236082Y0006522D01*
X0236185Y0006617D01*
X0236286Y0006714D01*
X0236383Y0006815D01*
X0236478Y0006918D01*
X0236570Y0007024D01*
X0236659Y0007133D01*
X0236745Y0007243D01*
X0236828Y0007357D01*
X0236907Y0007472D01*
X0236984Y0007590D01*
X0237057Y0007710D01*
X0237126Y0007831D01*
X0237192Y0007955D01*
X0237255Y0008081D01*
X0237314Y0008208D01*
X0237369Y0008337D01*
X0237421Y0008467D01*
X0237469Y0008599D01*
X0237514Y0008732D01*
X0237555Y0008866D01*
X0237592Y0009001D01*
X0237625Y0009137D01*
X0237654Y0009275D01*
X0237679Y0009412D01*
X0237701Y0009551D01*
X0237719Y0009690D01*
X0237732Y0009830D01*
X0237742Y0009970D01*
X0237748Y0010110D01*
X0237750Y0010250D01*
X0237752Y0010110D01*
X0237758Y0009970D01*
X0237768Y0009830D01*
X0237781Y0009690D01*
X0237799Y0009551D01*
X0237821Y0009412D01*
X0237846Y0009275D01*
X0237875Y0009137D01*
X0237908Y0009001D01*
X0237945Y0008866D01*
X0237986Y0008732D01*
X0238031Y0008599D01*
X0238079Y0008467D01*
X0238131Y0008337D01*
X0238186Y0008208D01*
X0238245Y0008081D01*
X0238308Y0007955D01*
X0238374Y0007831D01*
X0238443Y0007710D01*
X0238516Y0007590D01*
X0238593Y0007472D01*
X0238672Y0007357D01*
X0238755Y0007243D01*
X0238841Y0007133D01*
X0238930Y0007024D01*
X0239022Y0006918D01*
X0239117Y0006815D01*
X0239214Y0006714D01*
X0239315Y0006617D01*
X0239418Y0006522D01*
X0239524Y0006430D01*
X0239633Y0006341D01*
X0239743Y0006255D01*
X0239857Y0006172D01*
X0239972Y0006093D01*
X0240090Y0006016D01*
X0240210Y0005943D01*
X0240331Y0005874D01*
X0240455Y0005808D01*
X0240581Y0005745D01*
X0240708Y0005686D01*
X0240837Y0005631D01*
X0240967Y0005579D01*
X0241099Y0005531D01*
X0241232Y0005486D01*
X0241366Y0005445D01*
X0241501Y0005408D01*
X0241637Y0005375D01*
X0241775Y0005346D01*
X0241912Y0005321D01*
X0242051Y0005299D01*
X0242190Y0005281D01*
X0242330Y0005268D01*
X0242470Y0005258D01*
X0242610Y0005252D01*
X0242750Y0005250D01*
X0242890Y0005252D01*
X0243030Y0005258D01*
X0243170Y0005268D01*
X0243310Y0005281D01*
X0243449Y0005299D01*
X0243588Y0005321D01*
X0243725Y0005346D01*
X0243863Y0005375D01*
X0243999Y0005408D01*
X0244134Y0005445D01*
X0244268Y0005486D01*
X0244401Y0005531D01*
X0244533Y0005579D01*
X0244663Y0005631D01*
X0244792Y0005686D01*
X0244919Y0005745D01*
X0245045Y0005808D01*
X0245169Y0005874D01*
X0245290Y0005943D01*
X0245410Y0006016D01*
X0245528Y0006093D01*
X0245643Y0006172D01*
X0245757Y0006255D01*
X0245867Y0006341D01*
X0245976Y0006430D01*
X0246082Y0006522D01*
X0246185Y0006617D01*
X0246286Y0006714D01*
X0246383Y0006815D01*
X0246478Y0006918D01*
X0246570Y0007024D01*
X0246659Y0007133D01*
X0246745Y0007243D01*
X0246828Y0007357D01*
X0246907Y0007472D01*
X0246984Y0007590D01*
X0247057Y0007710D01*
X0247126Y0007831D01*
X0247192Y0007955D01*
X0247255Y0008081D01*
X0247314Y0008208D01*
X0247369Y0008337D01*
X0247421Y0008467D01*
X0247469Y0008599D01*
X0247514Y0008732D01*
X0247555Y0008866D01*
X0247592Y0009001D01*
X0247625Y0009137D01*
X0247654Y0009275D01*
X0247679Y0009412D01*
X0247701Y0009551D01*
X0247719Y0009690D01*
X0247732Y0009830D01*
X0247742Y0009970D01*
X0247748Y0010110D01*
X0247750Y0010250D01*
X0180910Y0066500D02*
X0180912Y0066649D01*
X0180918Y0066799D01*
X0180928Y0066948D01*
X0180942Y0067097D01*
X0180960Y0067245D01*
X0180982Y0067393D01*
X0181008Y0067540D01*
X0181037Y0067687D01*
X0181071Y0067832D01*
X0181109Y0067977D01*
X0181150Y0068120D01*
X0181195Y0068263D01*
X0181244Y0068404D01*
X0181297Y0068544D01*
X0181354Y0068682D01*
X0181414Y0068819D01*
X0181478Y0068954D01*
X0181545Y0069088D01*
X0181616Y0069219D01*
X0181690Y0069349D01*
X0181768Y0069476D01*
X0181849Y0069602D01*
X0181934Y0069725D01*
X0182022Y0069846D01*
X0182113Y0069964D01*
X0182207Y0070080D01*
X0182304Y0070194D01*
X0182405Y0070305D01*
X0182508Y0070413D01*
X0182614Y0070518D01*
X0182723Y0070621D01*
X0182834Y0070720D01*
X0182948Y0070817D01*
X0183065Y0070910D01*
X0183184Y0071000D01*
X0183306Y0071087D01*
X0183429Y0071171D01*
X0183555Y0071252D01*
X0183683Y0071329D01*
X0183814Y0071402D01*
X0183946Y0071472D01*
X0184079Y0071539D01*
X0184215Y0071602D01*
X0184352Y0071661D01*
X0184491Y0071716D01*
X0184631Y0071768D01*
X0184773Y0071816D01*
X0184915Y0071861D01*
X0185059Y0071901D01*
X0185204Y0071938D01*
X0185350Y0071970D01*
X0185497Y0071999D01*
X0185644Y0072024D01*
X0185792Y0072045D01*
X0185940Y0072062D01*
X0186089Y0072075D01*
X0186239Y0072084D01*
X0186388Y0072089D01*
X0186537Y0072090D01*
X0186687Y0072087D01*
X0186836Y0072080D01*
X0186985Y0072069D01*
X0187134Y0072054D01*
X0187282Y0072035D01*
X0187430Y0072012D01*
X0187577Y0071985D01*
X0187723Y0071955D01*
X0187868Y0071920D01*
X0188013Y0071881D01*
X0188156Y0071839D01*
X0188298Y0071793D01*
X0188439Y0071743D01*
X0188579Y0071689D01*
X0188717Y0071632D01*
X0188853Y0071571D01*
X0188988Y0071506D01*
X0189121Y0071438D01*
X0189252Y0071366D01*
X0189381Y0071290D01*
X0189508Y0071212D01*
X0189633Y0071130D01*
X0189755Y0071044D01*
X0189876Y0070956D01*
X0189994Y0070864D01*
X0190109Y0070769D01*
X0190222Y0070671D01*
X0190332Y0070570D01*
X0190439Y0070466D01*
X0190544Y0070359D01*
X0190646Y0070250D01*
X0190745Y0070138D01*
X0190840Y0070023D01*
X0190933Y0069905D01*
X0191022Y0069786D01*
X0191109Y0069664D01*
X0191192Y0069539D01*
X0191271Y0069413D01*
X0191347Y0069284D01*
X0191420Y0069154D01*
X0191489Y0069021D01*
X0191555Y0068887D01*
X0191617Y0068751D01*
X0191675Y0068613D01*
X0191730Y0068474D01*
X0191781Y0068334D01*
X0191828Y0068192D01*
X0191871Y0068049D01*
X0191911Y0067905D01*
X0191946Y0067759D01*
X0191978Y0067613D01*
X0192006Y0067467D01*
X0192030Y0067319D01*
X0192050Y0067171D01*
X0192066Y0067022D01*
X0192078Y0066873D01*
X0192086Y0066724D01*
X0192090Y0066575D01*
X0192090Y0066425D01*
X0192086Y0066276D01*
X0192078Y0066127D01*
X0192066Y0065978D01*
X0192050Y0065829D01*
X0192030Y0065681D01*
X0192006Y0065533D01*
X0191978Y0065387D01*
X0191946Y0065241D01*
X0191911Y0065095D01*
X0191871Y0064951D01*
X0191828Y0064808D01*
X0191781Y0064666D01*
X0191730Y0064526D01*
X0191675Y0064387D01*
X0191617Y0064249D01*
X0191555Y0064113D01*
X0191489Y0063979D01*
X0191420Y0063846D01*
X0191347Y0063716D01*
X0191271Y0063587D01*
X0191192Y0063461D01*
X0191109Y0063336D01*
X0191022Y0063214D01*
X0190933Y0063095D01*
X0190840Y0062977D01*
X0190745Y0062862D01*
X0190646Y0062750D01*
X0190544Y0062641D01*
X0190439Y0062534D01*
X0190332Y0062430D01*
X0190222Y0062329D01*
X0190109Y0062231D01*
X0189994Y0062136D01*
X0189876Y0062044D01*
X0189755Y0061956D01*
X0189633Y0061870D01*
X0189508Y0061788D01*
X0189381Y0061710D01*
X0189252Y0061634D01*
X0189121Y0061562D01*
X0188988Y0061494D01*
X0188853Y0061429D01*
X0188717Y0061368D01*
X0188579Y0061311D01*
X0188439Y0061257D01*
X0188298Y0061207D01*
X0188156Y0061161D01*
X0188013Y0061119D01*
X0187868Y0061080D01*
X0187723Y0061045D01*
X0187577Y0061015D01*
X0187430Y0060988D01*
X0187282Y0060965D01*
X0187134Y0060946D01*
X0186985Y0060931D01*
X0186836Y0060920D01*
X0186687Y0060913D01*
X0186537Y0060910D01*
X0186388Y0060911D01*
X0186239Y0060916D01*
X0186089Y0060925D01*
X0185940Y0060938D01*
X0185792Y0060955D01*
X0185644Y0060976D01*
X0185497Y0061001D01*
X0185350Y0061030D01*
X0185204Y0061062D01*
X0185059Y0061099D01*
X0184915Y0061139D01*
X0184773Y0061184D01*
X0184631Y0061232D01*
X0184491Y0061284D01*
X0184352Y0061339D01*
X0184215Y0061398D01*
X0184079Y0061461D01*
X0183946Y0061528D01*
X0183814Y0061598D01*
X0183683Y0061671D01*
X0183555Y0061748D01*
X0183429Y0061829D01*
X0183306Y0061913D01*
X0183184Y0062000D01*
X0183065Y0062090D01*
X0182948Y0062183D01*
X0182834Y0062280D01*
X0182723Y0062379D01*
X0182614Y0062482D01*
X0182508Y0062587D01*
X0182405Y0062695D01*
X0182304Y0062806D01*
X0182207Y0062920D01*
X0182113Y0063036D01*
X0182022Y0063154D01*
X0181934Y0063275D01*
X0181849Y0063398D01*
X0181768Y0063524D01*
X0181690Y0063651D01*
X0181616Y0063781D01*
X0181545Y0063912D01*
X0181478Y0064046D01*
X0181414Y0064181D01*
X0181354Y0064318D01*
X0181297Y0064456D01*
X0181244Y0064596D01*
X0181195Y0064737D01*
X0181150Y0064880D01*
X0181109Y0065023D01*
X0181071Y0065168D01*
X0181037Y0065313D01*
X0181008Y0065460D01*
X0180982Y0065607D01*
X0180960Y0065755D01*
X0180942Y0065903D01*
X0180928Y0066052D01*
X0180918Y0066201D01*
X0180912Y0066351D01*
X0180910Y0066500D01*
X0177750Y0070250D02*
X0177748Y0070390D01*
X0177742Y0070530D01*
X0177732Y0070670D01*
X0177719Y0070810D01*
X0177701Y0070949D01*
X0177679Y0071088D01*
X0177654Y0071225D01*
X0177625Y0071363D01*
X0177592Y0071499D01*
X0177555Y0071634D01*
X0177514Y0071768D01*
X0177469Y0071901D01*
X0177421Y0072033D01*
X0177369Y0072163D01*
X0177314Y0072292D01*
X0177255Y0072419D01*
X0177192Y0072545D01*
X0177126Y0072669D01*
X0177057Y0072790D01*
X0176984Y0072910D01*
X0176907Y0073028D01*
X0176828Y0073143D01*
X0176745Y0073257D01*
X0176659Y0073367D01*
X0176570Y0073476D01*
X0176478Y0073582D01*
X0176383Y0073685D01*
X0176286Y0073786D01*
X0176185Y0073883D01*
X0176082Y0073978D01*
X0175976Y0074070D01*
X0175867Y0074159D01*
X0175757Y0074245D01*
X0175643Y0074328D01*
X0175528Y0074407D01*
X0175410Y0074484D01*
X0175290Y0074557D01*
X0175169Y0074626D01*
X0175045Y0074692D01*
X0174919Y0074755D01*
X0174792Y0074814D01*
X0174663Y0074869D01*
X0174533Y0074921D01*
X0174401Y0074969D01*
X0174268Y0075014D01*
X0174134Y0075055D01*
X0173999Y0075092D01*
X0173863Y0075125D01*
X0173725Y0075154D01*
X0173588Y0075179D01*
X0173449Y0075201D01*
X0173310Y0075219D01*
X0173170Y0075232D01*
X0173030Y0075242D01*
X0172890Y0075248D01*
X0172750Y0075250D01*
X0172610Y0075248D01*
X0172470Y0075242D01*
X0172330Y0075232D01*
X0172190Y0075219D01*
X0172051Y0075201D01*
X0171912Y0075179D01*
X0171775Y0075154D01*
X0171637Y0075125D01*
X0171501Y0075092D01*
X0171366Y0075055D01*
X0171232Y0075014D01*
X0171099Y0074969D01*
X0170967Y0074921D01*
X0170837Y0074869D01*
X0170708Y0074814D01*
X0170581Y0074755D01*
X0170455Y0074692D01*
X0170331Y0074626D01*
X0170210Y0074557D01*
X0170090Y0074484D01*
X0169972Y0074407D01*
X0169857Y0074328D01*
X0169743Y0074245D01*
X0169633Y0074159D01*
X0169524Y0074070D01*
X0169418Y0073978D01*
X0169315Y0073883D01*
X0169214Y0073786D01*
X0169117Y0073685D01*
X0169022Y0073582D01*
X0168930Y0073476D01*
X0168841Y0073367D01*
X0168755Y0073257D01*
X0168672Y0073143D01*
X0168593Y0073028D01*
X0168516Y0072910D01*
X0168443Y0072790D01*
X0168374Y0072669D01*
X0168308Y0072545D01*
X0168245Y0072419D01*
X0168186Y0072292D01*
X0168131Y0072163D01*
X0168079Y0072033D01*
X0168031Y0071901D01*
X0167986Y0071768D01*
X0167945Y0071634D01*
X0167908Y0071499D01*
X0167875Y0071363D01*
X0167846Y0071225D01*
X0167821Y0071088D01*
X0167799Y0070949D01*
X0167781Y0070810D01*
X0167768Y0070670D01*
X0167758Y0070530D01*
X0167752Y0070390D01*
X0167750Y0070250D01*
X0157750Y0070250D02*
X0157748Y0070390D01*
X0157742Y0070530D01*
X0157732Y0070670D01*
X0157719Y0070810D01*
X0157701Y0070949D01*
X0157679Y0071088D01*
X0157654Y0071225D01*
X0157625Y0071363D01*
X0157592Y0071499D01*
X0157555Y0071634D01*
X0157514Y0071768D01*
X0157469Y0071901D01*
X0157421Y0072033D01*
X0157369Y0072163D01*
X0157314Y0072292D01*
X0157255Y0072419D01*
X0157192Y0072545D01*
X0157126Y0072669D01*
X0157057Y0072790D01*
X0156984Y0072910D01*
X0156907Y0073028D01*
X0156828Y0073143D01*
X0156745Y0073257D01*
X0156659Y0073367D01*
X0156570Y0073476D01*
X0156478Y0073582D01*
X0156383Y0073685D01*
X0156286Y0073786D01*
X0156185Y0073883D01*
X0156082Y0073978D01*
X0155976Y0074070D01*
X0155867Y0074159D01*
X0155757Y0074245D01*
X0155643Y0074328D01*
X0155528Y0074407D01*
X0155410Y0074484D01*
X0155290Y0074557D01*
X0155169Y0074626D01*
X0155045Y0074692D01*
X0154919Y0074755D01*
X0154792Y0074814D01*
X0154663Y0074869D01*
X0154533Y0074921D01*
X0154401Y0074969D01*
X0154268Y0075014D01*
X0154134Y0075055D01*
X0153999Y0075092D01*
X0153863Y0075125D01*
X0153725Y0075154D01*
X0153588Y0075179D01*
X0153449Y0075201D01*
X0153310Y0075219D01*
X0153170Y0075232D01*
X0153030Y0075242D01*
X0152890Y0075248D01*
X0152750Y0075250D01*
X0152610Y0075248D01*
X0152470Y0075242D01*
X0152330Y0075232D01*
X0152190Y0075219D01*
X0152051Y0075201D01*
X0151912Y0075179D01*
X0151775Y0075154D01*
X0151637Y0075125D01*
X0151501Y0075092D01*
X0151366Y0075055D01*
X0151232Y0075014D01*
X0151099Y0074969D01*
X0150967Y0074921D01*
X0150837Y0074869D01*
X0150708Y0074814D01*
X0150581Y0074755D01*
X0150455Y0074692D01*
X0150331Y0074626D01*
X0150210Y0074557D01*
X0150090Y0074484D01*
X0149972Y0074407D01*
X0149857Y0074328D01*
X0149743Y0074245D01*
X0149633Y0074159D01*
X0149524Y0074070D01*
X0149418Y0073978D01*
X0149315Y0073883D01*
X0149214Y0073786D01*
X0149117Y0073685D01*
X0149022Y0073582D01*
X0148930Y0073476D01*
X0148841Y0073367D01*
X0148755Y0073257D01*
X0148672Y0073143D01*
X0148593Y0073028D01*
X0148516Y0072910D01*
X0148443Y0072790D01*
X0148374Y0072669D01*
X0148308Y0072545D01*
X0148245Y0072419D01*
X0148186Y0072292D01*
X0148131Y0072163D01*
X0148079Y0072033D01*
X0148031Y0071901D01*
X0147986Y0071768D01*
X0147945Y0071634D01*
X0147908Y0071499D01*
X0147875Y0071363D01*
X0147846Y0071225D01*
X0147821Y0071088D01*
X0147799Y0070949D01*
X0147781Y0070810D01*
X0147768Y0070670D01*
X0147758Y0070530D01*
X0147752Y0070390D01*
X0147750Y0070250D01*
X0147748Y0070390D01*
X0147742Y0070530D01*
X0147732Y0070670D01*
X0147719Y0070810D01*
X0147701Y0070949D01*
X0147679Y0071088D01*
X0147654Y0071225D01*
X0147625Y0071363D01*
X0147592Y0071499D01*
X0147555Y0071634D01*
X0147514Y0071768D01*
X0147469Y0071901D01*
X0147421Y0072033D01*
X0147369Y0072163D01*
X0147314Y0072292D01*
X0147255Y0072419D01*
X0147192Y0072545D01*
X0147126Y0072669D01*
X0147057Y0072790D01*
X0146984Y0072910D01*
X0146907Y0073028D01*
X0146828Y0073143D01*
X0146745Y0073257D01*
X0146659Y0073367D01*
X0146570Y0073476D01*
X0146478Y0073582D01*
X0146383Y0073685D01*
X0146286Y0073786D01*
X0146185Y0073883D01*
X0146082Y0073978D01*
X0145976Y0074070D01*
X0145867Y0074159D01*
X0145757Y0074245D01*
X0145643Y0074328D01*
X0145528Y0074407D01*
X0145410Y0074484D01*
X0145290Y0074557D01*
X0145169Y0074626D01*
X0145045Y0074692D01*
X0144919Y0074755D01*
X0144792Y0074814D01*
X0144663Y0074869D01*
X0144533Y0074921D01*
X0144401Y0074969D01*
X0144268Y0075014D01*
X0144134Y0075055D01*
X0143999Y0075092D01*
X0143863Y0075125D01*
X0143725Y0075154D01*
X0143588Y0075179D01*
X0143449Y0075201D01*
X0143310Y0075219D01*
X0143170Y0075232D01*
X0143030Y0075242D01*
X0142890Y0075248D01*
X0142750Y0075250D01*
X0142610Y0075248D01*
X0142470Y0075242D01*
X0142330Y0075232D01*
X0142190Y0075219D01*
X0142051Y0075201D01*
X0141912Y0075179D01*
X0141775Y0075154D01*
X0141637Y0075125D01*
X0141501Y0075092D01*
X0141366Y0075055D01*
X0141232Y0075014D01*
X0141099Y0074969D01*
X0140967Y0074921D01*
X0140837Y0074869D01*
X0140708Y0074814D01*
X0140581Y0074755D01*
X0140455Y0074692D01*
X0140331Y0074626D01*
X0140210Y0074557D01*
X0140090Y0074484D01*
X0139972Y0074407D01*
X0139857Y0074328D01*
X0139743Y0074245D01*
X0139633Y0074159D01*
X0139524Y0074070D01*
X0139418Y0073978D01*
X0139315Y0073883D01*
X0139214Y0073786D01*
X0139117Y0073685D01*
X0139022Y0073582D01*
X0138930Y0073476D01*
X0138841Y0073367D01*
X0138755Y0073257D01*
X0138672Y0073143D01*
X0138593Y0073028D01*
X0138516Y0072910D01*
X0138443Y0072790D01*
X0138374Y0072669D01*
X0138308Y0072545D01*
X0138245Y0072419D01*
X0138186Y0072292D01*
X0138131Y0072163D01*
X0138079Y0072033D01*
X0138031Y0071901D01*
X0137986Y0071768D01*
X0137945Y0071634D01*
X0137908Y0071499D01*
X0137875Y0071363D01*
X0137846Y0071225D01*
X0137821Y0071088D01*
X0137799Y0070949D01*
X0137781Y0070810D01*
X0137768Y0070670D01*
X0137758Y0070530D01*
X0137752Y0070390D01*
X0137750Y0070250D01*
X0137748Y0070390D01*
X0137742Y0070530D01*
X0137732Y0070670D01*
X0137719Y0070810D01*
X0137701Y0070949D01*
X0137679Y0071088D01*
X0137654Y0071225D01*
X0137625Y0071363D01*
X0137592Y0071499D01*
X0137555Y0071634D01*
X0137514Y0071768D01*
X0137469Y0071901D01*
X0137421Y0072033D01*
X0137369Y0072163D01*
X0137314Y0072292D01*
X0137255Y0072419D01*
X0137192Y0072545D01*
X0137126Y0072669D01*
X0137057Y0072790D01*
X0136984Y0072910D01*
X0136907Y0073028D01*
X0136828Y0073143D01*
X0136745Y0073257D01*
X0136659Y0073367D01*
X0136570Y0073476D01*
X0136478Y0073582D01*
X0136383Y0073685D01*
X0136286Y0073786D01*
X0136185Y0073883D01*
X0136082Y0073978D01*
X0135976Y0074070D01*
X0135867Y0074159D01*
X0135757Y0074245D01*
X0135643Y0074328D01*
X0135528Y0074407D01*
X0135410Y0074484D01*
X0135290Y0074557D01*
X0135169Y0074626D01*
X0135045Y0074692D01*
X0134919Y0074755D01*
X0134792Y0074814D01*
X0134663Y0074869D01*
X0134533Y0074921D01*
X0134401Y0074969D01*
X0134268Y0075014D01*
X0134134Y0075055D01*
X0133999Y0075092D01*
X0133863Y0075125D01*
X0133725Y0075154D01*
X0133588Y0075179D01*
X0133449Y0075201D01*
X0133310Y0075219D01*
X0133170Y0075232D01*
X0133030Y0075242D01*
X0132890Y0075248D01*
X0132750Y0075250D01*
X0132610Y0075248D01*
X0132470Y0075242D01*
X0132330Y0075232D01*
X0132190Y0075219D01*
X0132051Y0075201D01*
X0131912Y0075179D01*
X0131775Y0075154D01*
X0131637Y0075125D01*
X0131501Y0075092D01*
X0131366Y0075055D01*
X0131232Y0075014D01*
X0131099Y0074969D01*
X0130967Y0074921D01*
X0130837Y0074869D01*
X0130708Y0074814D01*
X0130581Y0074755D01*
X0130455Y0074692D01*
X0130331Y0074626D01*
X0130210Y0074557D01*
X0130090Y0074484D01*
X0129972Y0074407D01*
X0129857Y0074328D01*
X0129743Y0074245D01*
X0129633Y0074159D01*
X0129524Y0074070D01*
X0129418Y0073978D01*
X0129315Y0073883D01*
X0129214Y0073786D01*
X0129117Y0073685D01*
X0129022Y0073582D01*
X0128930Y0073476D01*
X0128841Y0073367D01*
X0128755Y0073257D01*
X0128672Y0073143D01*
X0128593Y0073028D01*
X0128516Y0072910D01*
X0128443Y0072790D01*
X0128374Y0072669D01*
X0128308Y0072545D01*
X0128245Y0072419D01*
X0128186Y0072292D01*
X0128131Y0072163D01*
X0128079Y0072033D01*
X0128031Y0071901D01*
X0127986Y0071768D01*
X0127945Y0071634D01*
X0127908Y0071499D01*
X0127875Y0071363D01*
X0127846Y0071225D01*
X0127821Y0071088D01*
X0127799Y0070949D01*
X0127781Y0070810D01*
X0127768Y0070670D01*
X0127758Y0070530D01*
X0127752Y0070390D01*
X0127750Y0070250D01*
X0127748Y0070390D01*
X0127742Y0070530D01*
X0127732Y0070670D01*
X0127719Y0070810D01*
X0127701Y0070949D01*
X0127679Y0071088D01*
X0127654Y0071225D01*
X0127625Y0071363D01*
X0127592Y0071499D01*
X0127555Y0071634D01*
X0127514Y0071768D01*
X0127469Y0071901D01*
X0127421Y0072033D01*
X0127369Y0072163D01*
X0127314Y0072292D01*
X0127255Y0072419D01*
X0127192Y0072545D01*
X0127126Y0072669D01*
X0127057Y0072790D01*
X0126984Y0072910D01*
X0126907Y0073028D01*
X0126828Y0073143D01*
X0126745Y0073257D01*
X0126659Y0073367D01*
X0126570Y0073476D01*
X0126478Y0073582D01*
X0126383Y0073685D01*
X0126286Y0073786D01*
X0126185Y0073883D01*
X0126082Y0073978D01*
X0125976Y0074070D01*
X0125867Y0074159D01*
X0125757Y0074245D01*
X0125643Y0074328D01*
X0125528Y0074407D01*
X0125410Y0074484D01*
X0125290Y0074557D01*
X0125169Y0074626D01*
X0125045Y0074692D01*
X0124919Y0074755D01*
X0124792Y0074814D01*
X0124663Y0074869D01*
X0124533Y0074921D01*
X0124401Y0074969D01*
X0124268Y0075014D01*
X0124134Y0075055D01*
X0123999Y0075092D01*
X0123863Y0075125D01*
X0123725Y0075154D01*
X0123588Y0075179D01*
X0123449Y0075201D01*
X0123310Y0075219D01*
X0123170Y0075232D01*
X0123030Y0075242D01*
X0122890Y0075248D01*
X0122750Y0075250D01*
X0122610Y0075248D01*
X0122470Y0075242D01*
X0122330Y0075232D01*
X0122190Y0075219D01*
X0122051Y0075201D01*
X0121912Y0075179D01*
X0121775Y0075154D01*
X0121637Y0075125D01*
X0121501Y0075092D01*
X0121366Y0075055D01*
X0121232Y0075014D01*
X0121099Y0074969D01*
X0120967Y0074921D01*
X0120837Y0074869D01*
X0120708Y0074814D01*
X0120581Y0074755D01*
X0120455Y0074692D01*
X0120331Y0074626D01*
X0120210Y0074557D01*
X0120090Y0074484D01*
X0119972Y0074407D01*
X0119857Y0074328D01*
X0119743Y0074245D01*
X0119633Y0074159D01*
X0119524Y0074070D01*
X0119418Y0073978D01*
X0119315Y0073883D01*
X0119214Y0073786D01*
X0119117Y0073685D01*
X0119022Y0073582D01*
X0118930Y0073476D01*
X0118841Y0073367D01*
X0118755Y0073257D01*
X0118672Y0073143D01*
X0118593Y0073028D01*
X0118516Y0072910D01*
X0118443Y0072790D01*
X0118374Y0072669D01*
X0118308Y0072545D01*
X0118245Y0072419D01*
X0118186Y0072292D01*
X0118131Y0072163D01*
X0118079Y0072033D01*
X0118031Y0071901D01*
X0117986Y0071768D01*
X0117945Y0071634D01*
X0117908Y0071499D01*
X0117875Y0071363D01*
X0117846Y0071225D01*
X0117821Y0071088D01*
X0117799Y0070949D01*
X0117781Y0070810D01*
X0117768Y0070670D01*
X0117758Y0070530D01*
X0117752Y0070390D01*
X0117750Y0070250D01*
X0117748Y0070390D01*
X0117742Y0070530D01*
X0117732Y0070670D01*
X0117719Y0070810D01*
X0117701Y0070949D01*
X0117679Y0071088D01*
X0117654Y0071225D01*
X0117625Y0071363D01*
X0117592Y0071499D01*
X0117555Y0071634D01*
X0117514Y0071768D01*
X0117469Y0071901D01*
X0117421Y0072033D01*
X0117369Y0072163D01*
X0117314Y0072292D01*
X0117255Y0072419D01*
X0117192Y0072545D01*
X0117126Y0072669D01*
X0117057Y0072790D01*
X0116984Y0072910D01*
X0116907Y0073028D01*
X0116828Y0073143D01*
X0116745Y0073257D01*
X0116659Y0073367D01*
X0116570Y0073476D01*
X0116478Y0073582D01*
X0116383Y0073685D01*
X0116286Y0073786D01*
X0116185Y0073883D01*
X0116082Y0073978D01*
X0115976Y0074070D01*
X0115867Y0074159D01*
X0115757Y0074245D01*
X0115643Y0074328D01*
X0115528Y0074407D01*
X0115410Y0074484D01*
X0115290Y0074557D01*
X0115169Y0074626D01*
X0115045Y0074692D01*
X0114919Y0074755D01*
X0114792Y0074814D01*
X0114663Y0074869D01*
X0114533Y0074921D01*
X0114401Y0074969D01*
X0114268Y0075014D01*
X0114134Y0075055D01*
X0113999Y0075092D01*
X0113863Y0075125D01*
X0113725Y0075154D01*
X0113588Y0075179D01*
X0113449Y0075201D01*
X0113310Y0075219D01*
X0113170Y0075232D01*
X0113030Y0075242D01*
X0112890Y0075248D01*
X0112750Y0075250D01*
X0112610Y0075248D01*
X0112470Y0075242D01*
X0112330Y0075232D01*
X0112190Y0075219D01*
X0112051Y0075201D01*
X0111912Y0075179D01*
X0111775Y0075154D01*
X0111637Y0075125D01*
X0111501Y0075092D01*
X0111366Y0075055D01*
X0111232Y0075014D01*
X0111099Y0074969D01*
X0110967Y0074921D01*
X0110837Y0074869D01*
X0110708Y0074814D01*
X0110581Y0074755D01*
X0110455Y0074692D01*
X0110331Y0074626D01*
X0110210Y0074557D01*
X0110090Y0074484D01*
X0109972Y0074407D01*
X0109857Y0074328D01*
X0109743Y0074245D01*
X0109633Y0074159D01*
X0109524Y0074070D01*
X0109418Y0073978D01*
X0109315Y0073883D01*
X0109214Y0073786D01*
X0109117Y0073685D01*
X0109022Y0073582D01*
X0108930Y0073476D01*
X0108841Y0073367D01*
X0108755Y0073257D01*
X0108672Y0073143D01*
X0108593Y0073028D01*
X0108516Y0072910D01*
X0108443Y0072790D01*
X0108374Y0072669D01*
X0108308Y0072545D01*
X0108245Y0072419D01*
X0108186Y0072292D01*
X0108131Y0072163D01*
X0108079Y0072033D01*
X0108031Y0071901D01*
X0107986Y0071768D01*
X0107945Y0071634D01*
X0107908Y0071499D01*
X0107875Y0071363D01*
X0107846Y0071225D01*
X0107821Y0071088D01*
X0107799Y0070949D01*
X0107781Y0070810D01*
X0107768Y0070670D01*
X0107758Y0070530D01*
X0107752Y0070390D01*
X0107750Y0070250D01*
X0107748Y0070390D01*
X0107742Y0070530D01*
X0107732Y0070670D01*
X0107719Y0070810D01*
X0107701Y0070949D01*
X0107679Y0071088D01*
X0107654Y0071225D01*
X0107625Y0071363D01*
X0107592Y0071499D01*
X0107555Y0071634D01*
X0107514Y0071768D01*
X0107469Y0071901D01*
X0107421Y0072033D01*
X0107369Y0072163D01*
X0107314Y0072292D01*
X0107255Y0072419D01*
X0107192Y0072545D01*
X0107126Y0072669D01*
X0107057Y0072790D01*
X0106984Y0072910D01*
X0106907Y0073028D01*
X0106828Y0073143D01*
X0106745Y0073257D01*
X0106659Y0073367D01*
X0106570Y0073476D01*
X0106478Y0073582D01*
X0106383Y0073685D01*
X0106286Y0073786D01*
X0106185Y0073883D01*
X0106082Y0073978D01*
X0105976Y0074070D01*
X0105867Y0074159D01*
X0105757Y0074245D01*
X0105643Y0074328D01*
X0105528Y0074407D01*
X0105410Y0074484D01*
X0105290Y0074557D01*
X0105169Y0074626D01*
X0105045Y0074692D01*
X0104919Y0074755D01*
X0104792Y0074814D01*
X0104663Y0074869D01*
X0104533Y0074921D01*
X0104401Y0074969D01*
X0104268Y0075014D01*
X0104134Y0075055D01*
X0103999Y0075092D01*
X0103863Y0075125D01*
X0103725Y0075154D01*
X0103588Y0075179D01*
X0103449Y0075201D01*
X0103310Y0075219D01*
X0103170Y0075232D01*
X0103030Y0075242D01*
X0102890Y0075248D01*
X0102750Y0075250D01*
X0102610Y0075248D01*
X0102470Y0075242D01*
X0102330Y0075232D01*
X0102190Y0075219D01*
X0102051Y0075201D01*
X0101912Y0075179D01*
X0101775Y0075154D01*
X0101637Y0075125D01*
X0101501Y0075092D01*
X0101366Y0075055D01*
X0101232Y0075014D01*
X0101099Y0074969D01*
X0100967Y0074921D01*
X0100837Y0074869D01*
X0100708Y0074814D01*
X0100581Y0074755D01*
X0100455Y0074692D01*
X0100331Y0074626D01*
X0100210Y0074557D01*
X0100090Y0074484D01*
X0099972Y0074407D01*
X0099857Y0074328D01*
X0099743Y0074245D01*
X0099633Y0074159D01*
X0099524Y0074070D01*
X0099418Y0073978D01*
X0099315Y0073883D01*
X0099214Y0073786D01*
X0099117Y0073685D01*
X0099022Y0073582D01*
X0098930Y0073476D01*
X0098841Y0073367D01*
X0098755Y0073257D01*
X0098672Y0073143D01*
X0098593Y0073028D01*
X0098516Y0072910D01*
X0098443Y0072790D01*
X0098374Y0072669D01*
X0098308Y0072545D01*
X0098245Y0072419D01*
X0098186Y0072292D01*
X0098131Y0072163D01*
X0098079Y0072033D01*
X0098031Y0071901D01*
X0097986Y0071768D01*
X0097945Y0071634D01*
X0097908Y0071499D01*
X0097875Y0071363D01*
X0097846Y0071225D01*
X0097821Y0071088D01*
X0097799Y0070949D01*
X0097781Y0070810D01*
X0097768Y0070670D01*
X0097758Y0070530D01*
X0097752Y0070390D01*
X0097750Y0070250D01*
X0097748Y0070390D01*
X0097742Y0070530D01*
X0097732Y0070670D01*
X0097719Y0070810D01*
X0097701Y0070949D01*
X0097679Y0071088D01*
X0097654Y0071225D01*
X0097625Y0071363D01*
X0097592Y0071499D01*
X0097555Y0071634D01*
X0097514Y0071768D01*
X0097469Y0071901D01*
X0097421Y0072033D01*
X0097369Y0072163D01*
X0097314Y0072292D01*
X0097255Y0072419D01*
X0097192Y0072545D01*
X0097126Y0072669D01*
X0097057Y0072790D01*
X0096984Y0072910D01*
X0096907Y0073028D01*
X0096828Y0073143D01*
X0096745Y0073257D01*
X0096659Y0073367D01*
X0096570Y0073476D01*
X0096478Y0073582D01*
X0096383Y0073685D01*
X0096286Y0073786D01*
X0096185Y0073883D01*
X0096082Y0073978D01*
X0095976Y0074070D01*
X0095867Y0074159D01*
X0095757Y0074245D01*
X0095643Y0074328D01*
X0095528Y0074407D01*
X0095410Y0074484D01*
X0095290Y0074557D01*
X0095169Y0074626D01*
X0095045Y0074692D01*
X0094919Y0074755D01*
X0094792Y0074814D01*
X0094663Y0074869D01*
X0094533Y0074921D01*
X0094401Y0074969D01*
X0094268Y0075014D01*
X0094134Y0075055D01*
X0093999Y0075092D01*
X0093863Y0075125D01*
X0093725Y0075154D01*
X0093588Y0075179D01*
X0093449Y0075201D01*
X0093310Y0075219D01*
X0093170Y0075232D01*
X0093030Y0075242D01*
X0092890Y0075248D01*
X0092750Y0075250D01*
X0092610Y0075248D01*
X0092470Y0075242D01*
X0092330Y0075232D01*
X0092190Y0075219D01*
X0092051Y0075201D01*
X0091912Y0075179D01*
X0091775Y0075154D01*
X0091637Y0075125D01*
X0091501Y0075092D01*
X0091366Y0075055D01*
X0091232Y0075014D01*
X0091099Y0074969D01*
X0090967Y0074921D01*
X0090837Y0074869D01*
X0090708Y0074814D01*
X0090581Y0074755D01*
X0090455Y0074692D01*
X0090331Y0074626D01*
X0090210Y0074557D01*
X0090090Y0074484D01*
X0089972Y0074407D01*
X0089857Y0074328D01*
X0089743Y0074245D01*
X0089633Y0074159D01*
X0089524Y0074070D01*
X0089418Y0073978D01*
X0089315Y0073883D01*
X0089214Y0073786D01*
X0089117Y0073685D01*
X0089022Y0073582D01*
X0088930Y0073476D01*
X0088841Y0073367D01*
X0088755Y0073257D01*
X0088672Y0073143D01*
X0088593Y0073028D01*
X0088516Y0072910D01*
X0088443Y0072790D01*
X0088374Y0072669D01*
X0088308Y0072545D01*
X0088245Y0072419D01*
X0088186Y0072292D01*
X0088131Y0072163D01*
X0088079Y0072033D01*
X0088031Y0071901D01*
X0087986Y0071768D01*
X0087945Y0071634D01*
X0087908Y0071499D01*
X0087875Y0071363D01*
X0087846Y0071225D01*
X0087821Y0071088D01*
X0087799Y0070949D01*
X0087781Y0070810D01*
X0087768Y0070670D01*
X0087758Y0070530D01*
X0087752Y0070390D01*
X0087750Y0070250D01*
X0107750Y0070250D02*
X0107752Y0070390D01*
X0107758Y0070530D01*
X0107768Y0070670D01*
X0107781Y0070810D01*
X0107799Y0070949D01*
X0107821Y0071088D01*
X0107846Y0071225D01*
X0107875Y0071363D01*
X0107908Y0071499D01*
X0107945Y0071634D01*
X0107986Y0071768D01*
X0108031Y0071901D01*
X0108079Y0072033D01*
X0108131Y0072163D01*
X0108186Y0072292D01*
X0108245Y0072419D01*
X0108308Y0072545D01*
X0108374Y0072669D01*
X0108443Y0072790D01*
X0108516Y0072910D01*
X0108593Y0073028D01*
X0108672Y0073143D01*
X0108755Y0073257D01*
X0108841Y0073367D01*
X0108930Y0073476D01*
X0109022Y0073582D01*
X0109117Y0073685D01*
X0109214Y0073786D01*
X0109315Y0073883D01*
X0109418Y0073978D01*
X0109524Y0074070D01*
X0109633Y0074159D01*
X0109743Y0074245D01*
X0109857Y0074328D01*
X0109972Y0074407D01*
X0110090Y0074484D01*
X0110210Y0074557D01*
X0110331Y0074626D01*
X0110455Y0074692D01*
X0110581Y0074755D01*
X0110708Y0074814D01*
X0110837Y0074869D01*
X0110967Y0074921D01*
X0111099Y0074969D01*
X0111232Y0075014D01*
X0111366Y0075055D01*
X0111501Y0075092D01*
X0111637Y0075125D01*
X0111775Y0075154D01*
X0111912Y0075179D01*
X0112051Y0075201D01*
X0112190Y0075219D01*
X0112330Y0075232D01*
X0112470Y0075242D01*
X0112610Y0075248D01*
X0112750Y0075250D01*
X0112890Y0075248D01*
X0113030Y0075242D01*
X0113170Y0075232D01*
X0113310Y0075219D01*
X0113449Y0075201D01*
X0113588Y0075179D01*
X0113725Y0075154D01*
X0113863Y0075125D01*
X0113999Y0075092D01*
X0114134Y0075055D01*
X0114268Y0075014D01*
X0114401Y0074969D01*
X0114533Y0074921D01*
X0114663Y0074869D01*
X0114792Y0074814D01*
X0114919Y0074755D01*
X0115045Y0074692D01*
X0115169Y0074626D01*
X0115290Y0074557D01*
X0115410Y0074484D01*
X0115528Y0074407D01*
X0115643Y0074328D01*
X0115757Y0074245D01*
X0115867Y0074159D01*
X0115976Y0074070D01*
X0116082Y0073978D01*
X0116185Y0073883D01*
X0116286Y0073786D01*
X0116383Y0073685D01*
X0116478Y0073582D01*
X0116570Y0073476D01*
X0116659Y0073367D01*
X0116745Y0073257D01*
X0116828Y0073143D01*
X0116907Y0073028D01*
X0116984Y0072910D01*
X0117057Y0072790D01*
X0117126Y0072669D01*
X0117192Y0072545D01*
X0117255Y0072419D01*
X0117314Y0072292D01*
X0117369Y0072163D01*
X0117421Y0072033D01*
X0117469Y0071901D01*
X0117514Y0071768D01*
X0117555Y0071634D01*
X0117592Y0071499D01*
X0117625Y0071363D01*
X0117654Y0071225D01*
X0117679Y0071088D01*
X0117701Y0070949D01*
X0117719Y0070810D01*
X0117732Y0070670D01*
X0117742Y0070530D01*
X0117748Y0070390D01*
X0117750Y0070250D01*
X0217750Y0070250D02*
X0217752Y0070390D01*
X0217758Y0070530D01*
X0217768Y0070670D01*
X0217781Y0070810D01*
X0217799Y0070949D01*
X0217821Y0071088D01*
X0217846Y0071225D01*
X0217875Y0071363D01*
X0217908Y0071499D01*
X0217945Y0071634D01*
X0217986Y0071768D01*
X0218031Y0071901D01*
X0218079Y0072033D01*
X0218131Y0072163D01*
X0218186Y0072292D01*
X0218245Y0072419D01*
X0218308Y0072545D01*
X0218374Y0072669D01*
X0218443Y0072790D01*
X0218516Y0072910D01*
X0218593Y0073028D01*
X0218672Y0073143D01*
X0218755Y0073257D01*
X0218841Y0073367D01*
X0218930Y0073476D01*
X0219022Y0073582D01*
X0219117Y0073685D01*
X0219214Y0073786D01*
X0219315Y0073883D01*
X0219418Y0073978D01*
X0219524Y0074070D01*
X0219633Y0074159D01*
X0219743Y0074245D01*
X0219857Y0074328D01*
X0219972Y0074407D01*
X0220090Y0074484D01*
X0220210Y0074557D01*
X0220331Y0074626D01*
X0220455Y0074692D01*
X0220581Y0074755D01*
X0220708Y0074814D01*
X0220837Y0074869D01*
X0220967Y0074921D01*
X0221099Y0074969D01*
X0221232Y0075014D01*
X0221366Y0075055D01*
X0221501Y0075092D01*
X0221637Y0075125D01*
X0221775Y0075154D01*
X0221912Y0075179D01*
X0222051Y0075201D01*
X0222190Y0075219D01*
X0222330Y0075232D01*
X0222470Y0075242D01*
X0222610Y0075248D01*
X0222750Y0075250D01*
X0222890Y0075248D01*
X0223030Y0075242D01*
X0223170Y0075232D01*
X0223310Y0075219D01*
X0223449Y0075201D01*
X0223588Y0075179D01*
X0223725Y0075154D01*
X0223863Y0075125D01*
X0223999Y0075092D01*
X0224134Y0075055D01*
X0224268Y0075014D01*
X0224401Y0074969D01*
X0224533Y0074921D01*
X0224663Y0074869D01*
X0224792Y0074814D01*
X0224919Y0074755D01*
X0225045Y0074692D01*
X0225169Y0074626D01*
X0225290Y0074557D01*
X0225410Y0074484D01*
X0225528Y0074407D01*
X0225643Y0074328D01*
X0225757Y0074245D01*
X0225867Y0074159D01*
X0225976Y0074070D01*
X0226082Y0073978D01*
X0226185Y0073883D01*
X0226286Y0073786D01*
X0226383Y0073685D01*
X0226478Y0073582D01*
X0226570Y0073476D01*
X0226659Y0073367D01*
X0226745Y0073257D01*
X0226828Y0073143D01*
X0226907Y0073028D01*
X0226984Y0072910D01*
X0227057Y0072790D01*
X0227126Y0072669D01*
X0227192Y0072545D01*
X0227255Y0072419D01*
X0227314Y0072292D01*
X0227369Y0072163D01*
X0227421Y0072033D01*
X0227469Y0071901D01*
X0227514Y0071768D01*
X0227555Y0071634D01*
X0227592Y0071499D01*
X0227625Y0071363D01*
X0227654Y0071225D01*
X0227679Y0071088D01*
X0227701Y0070949D01*
X0227719Y0070810D01*
X0227732Y0070670D01*
X0227742Y0070530D01*
X0227748Y0070390D01*
X0227750Y0070250D01*
X0227752Y0070390D01*
X0227758Y0070530D01*
X0227768Y0070670D01*
X0227781Y0070810D01*
X0227799Y0070949D01*
X0227821Y0071088D01*
X0227846Y0071225D01*
X0227875Y0071363D01*
X0227908Y0071499D01*
X0227945Y0071634D01*
X0227986Y0071768D01*
X0228031Y0071901D01*
X0228079Y0072033D01*
X0228131Y0072163D01*
X0228186Y0072292D01*
X0228245Y0072419D01*
X0228308Y0072545D01*
X0228374Y0072669D01*
X0228443Y0072790D01*
X0228516Y0072910D01*
X0228593Y0073028D01*
X0228672Y0073143D01*
X0228755Y0073257D01*
X0228841Y0073367D01*
X0228930Y0073476D01*
X0229022Y0073582D01*
X0229117Y0073685D01*
X0229214Y0073786D01*
X0229315Y0073883D01*
X0229418Y0073978D01*
X0229524Y0074070D01*
X0229633Y0074159D01*
X0229743Y0074245D01*
X0229857Y0074328D01*
X0229972Y0074407D01*
X0230090Y0074484D01*
X0230210Y0074557D01*
X0230331Y0074626D01*
X0230455Y0074692D01*
X0230581Y0074755D01*
X0230708Y0074814D01*
X0230837Y0074869D01*
X0230967Y0074921D01*
X0231099Y0074969D01*
X0231232Y0075014D01*
X0231366Y0075055D01*
X0231501Y0075092D01*
X0231637Y0075125D01*
X0231775Y0075154D01*
X0231912Y0075179D01*
X0232051Y0075201D01*
X0232190Y0075219D01*
X0232330Y0075232D01*
X0232470Y0075242D01*
X0232610Y0075248D01*
X0232750Y0075250D01*
X0232890Y0075248D01*
X0233030Y0075242D01*
X0233170Y0075232D01*
X0233310Y0075219D01*
X0233449Y0075201D01*
X0233588Y0075179D01*
X0233725Y0075154D01*
X0233863Y0075125D01*
X0233999Y0075092D01*
X0234134Y0075055D01*
X0234268Y0075014D01*
X0234401Y0074969D01*
X0234533Y0074921D01*
X0234663Y0074869D01*
X0234792Y0074814D01*
X0234919Y0074755D01*
X0235045Y0074692D01*
X0235169Y0074626D01*
X0235290Y0074557D01*
X0235410Y0074484D01*
X0235528Y0074407D01*
X0235643Y0074328D01*
X0235757Y0074245D01*
X0235867Y0074159D01*
X0235976Y0074070D01*
X0236082Y0073978D01*
X0236185Y0073883D01*
X0236286Y0073786D01*
X0236383Y0073685D01*
X0236478Y0073582D01*
X0236570Y0073476D01*
X0236659Y0073367D01*
X0236745Y0073257D01*
X0236828Y0073143D01*
X0236907Y0073028D01*
X0236984Y0072910D01*
X0237057Y0072790D01*
X0237126Y0072669D01*
X0237192Y0072545D01*
X0237255Y0072419D01*
X0237314Y0072292D01*
X0237369Y0072163D01*
X0237421Y0072033D01*
X0237469Y0071901D01*
X0237514Y0071768D01*
X0237555Y0071634D01*
X0237592Y0071499D01*
X0237625Y0071363D01*
X0237654Y0071225D01*
X0237679Y0071088D01*
X0237701Y0070949D01*
X0237719Y0070810D01*
X0237732Y0070670D01*
X0237742Y0070530D01*
X0237748Y0070390D01*
X0237750Y0070250D01*
X0237752Y0070390D01*
X0237758Y0070530D01*
X0237768Y0070670D01*
X0237781Y0070810D01*
X0237799Y0070949D01*
X0237821Y0071088D01*
X0237846Y0071225D01*
X0237875Y0071363D01*
X0237908Y0071499D01*
X0237945Y0071634D01*
X0237986Y0071768D01*
X0238031Y0071901D01*
X0238079Y0072033D01*
X0238131Y0072163D01*
X0238186Y0072292D01*
X0238245Y0072419D01*
X0238308Y0072545D01*
X0238374Y0072669D01*
X0238443Y0072790D01*
X0238516Y0072910D01*
X0238593Y0073028D01*
X0238672Y0073143D01*
X0238755Y0073257D01*
X0238841Y0073367D01*
X0238930Y0073476D01*
X0239022Y0073582D01*
X0239117Y0073685D01*
X0239214Y0073786D01*
X0239315Y0073883D01*
X0239418Y0073978D01*
X0239524Y0074070D01*
X0239633Y0074159D01*
X0239743Y0074245D01*
X0239857Y0074328D01*
X0239972Y0074407D01*
X0240090Y0074484D01*
X0240210Y0074557D01*
X0240331Y0074626D01*
X0240455Y0074692D01*
X0240581Y0074755D01*
X0240708Y0074814D01*
X0240837Y0074869D01*
X0240967Y0074921D01*
X0241099Y0074969D01*
X0241232Y0075014D01*
X0241366Y0075055D01*
X0241501Y0075092D01*
X0241637Y0075125D01*
X0241775Y0075154D01*
X0241912Y0075179D01*
X0242051Y0075201D01*
X0242190Y0075219D01*
X0242330Y0075232D01*
X0242470Y0075242D01*
X0242610Y0075248D01*
X0242750Y0075250D01*
X0242890Y0075248D01*
X0243030Y0075242D01*
X0243170Y0075232D01*
X0243310Y0075219D01*
X0243449Y0075201D01*
X0243588Y0075179D01*
X0243725Y0075154D01*
X0243863Y0075125D01*
X0243999Y0075092D01*
X0244134Y0075055D01*
X0244268Y0075014D01*
X0244401Y0074969D01*
X0244533Y0074921D01*
X0244663Y0074869D01*
X0244792Y0074814D01*
X0244919Y0074755D01*
X0245045Y0074692D01*
X0245169Y0074626D01*
X0245290Y0074557D01*
X0245410Y0074484D01*
X0245528Y0074407D01*
X0245643Y0074328D01*
X0245757Y0074245D01*
X0245867Y0074159D01*
X0245976Y0074070D01*
X0246082Y0073978D01*
X0246185Y0073883D01*
X0246286Y0073786D01*
X0246383Y0073685D01*
X0246478Y0073582D01*
X0246570Y0073476D01*
X0246659Y0073367D01*
X0246745Y0073257D01*
X0246828Y0073143D01*
X0246907Y0073028D01*
X0246984Y0072910D01*
X0247057Y0072790D01*
X0247126Y0072669D01*
X0247192Y0072545D01*
X0247255Y0072419D01*
X0247314Y0072292D01*
X0247369Y0072163D01*
X0247421Y0072033D01*
X0247469Y0071901D01*
X0247514Y0071768D01*
X0247555Y0071634D01*
X0247592Y0071499D01*
X0247625Y0071363D01*
X0247654Y0071225D01*
X0247679Y0071088D01*
X0247701Y0070949D01*
X0247719Y0070810D01*
X0247732Y0070670D01*
X0247742Y0070530D01*
X0247748Y0070390D01*
X0247750Y0070250D01*
X0017750Y0070250D02*
X0017748Y0070390D01*
X0017742Y0070530D01*
X0017732Y0070670D01*
X0017719Y0070810D01*
X0017701Y0070949D01*
X0017679Y0071088D01*
X0017654Y0071225D01*
X0017625Y0071363D01*
X0017592Y0071499D01*
X0017555Y0071634D01*
X0017514Y0071768D01*
X0017469Y0071901D01*
X0017421Y0072033D01*
X0017369Y0072163D01*
X0017314Y0072292D01*
X0017255Y0072419D01*
X0017192Y0072545D01*
X0017126Y0072669D01*
X0017057Y0072790D01*
X0016984Y0072910D01*
X0016907Y0073028D01*
X0016828Y0073143D01*
X0016745Y0073257D01*
X0016659Y0073367D01*
X0016570Y0073476D01*
X0016478Y0073582D01*
X0016383Y0073685D01*
X0016286Y0073786D01*
X0016185Y0073883D01*
X0016082Y0073978D01*
X0015976Y0074070D01*
X0015867Y0074159D01*
X0015757Y0074245D01*
X0015643Y0074328D01*
X0015528Y0074407D01*
X0015410Y0074484D01*
X0015290Y0074557D01*
X0015169Y0074626D01*
X0015045Y0074692D01*
X0014919Y0074755D01*
X0014792Y0074814D01*
X0014663Y0074869D01*
X0014533Y0074921D01*
X0014401Y0074969D01*
X0014268Y0075014D01*
X0014134Y0075055D01*
X0013999Y0075092D01*
X0013863Y0075125D01*
X0013725Y0075154D01*
X0013588Y0075179D01*
X0013449Y0075201D01*
X0013310Y0075219D01*
X0013170Y0075232D01*
X0013030Y0075242D01*
X0012890Y0075248D01*
X0012750Y0075250D01*
X0012610Y0075248D01*
X0012470Y0075242D01*
X0012330Y0075232D01*
X0012190Y0075219D01*
X0012051Y0075201D01*
X0011912Y0075179D01*
X0011775Y0075154D01*
X0011637Y0075125D01*
X0011501Y0075092D01*
X0011366Y0075055D01*
X0011232Y0075014D01*
X0011099Y0074969D01*
X0010967Y0074921D01*
X0010837Y0074869D01*
X0010708Y0074814D01*
X0010581Y0074755D01*
X0010455Y0074692D01*
X0010331Y0074626D01*
X0010210Y0074557D01*
X0010090Y0074484D01*
X0009972Y0074407D01*
X0009857Y0074328D01*
X0009743Y0074245D01*
X0009633Y0074159D01*
X0009524Y0074070D01*
X0009418Y0073978D01*
X0009315Y0073883D01*
X0009214Y0073786D01*
X0009117Y0073685D01*
X0009022Y0073582D01*
X0008930Y0073476D01*
X0008841Y0073367D01*
X0008755Y0073257D01*
X0008672Y0073143D01*
X0008593Y0073028D01*
X0008516Y0072910D01*
X0008443Y0072790D01*
X0008374Y0072669D01*
X0008308Y0072545D01*
X0008245Y0072419D01*
X0008186Y0072292D01*
X0008131Y0072163D01*
X0008079Y0072033D01*
X0008031Y0071901D01*
X0007986Y0071768D01*
X0007945Y0071634D01*
X0007908Y0071499D01*
X0007875Y0071363D01*
X0007846Y0071225D01*
X0007821Y0071088D01*
X0007799Y0070949D01*
X0007781Y0070810D01*
X0007768Y0070670D01*
X0007758Y0070530D01*
X0007752Y0070390D01*
X0007750Y0070250D01*
X0007752Y0070390D01*
X0007758Y0070530D01*
X0007768Y0070670D01*
X0007781Y0070810D01*
X0007799Y0070949D01*
X0007821Y0071088D01*
X0007846Y0071225D01*
X0007875Y0071363D01*
X0007908Y0071499D01*
X0007945Y0071634D01*
X0007986Y0071768D01*
X0008031Y0071901D01*
X0008079Y0072033D01*
X0008131Y0072163D01*
X0008186Y0072292D01*
X0008245Y0072419D01*
X0008308Y0072545D01*
X0008374Y0072669D01*
X0008443Y0072790D01*
X0008516Y0072910D01*
X0008593Y0073028D01*
X0008672Y0073143D01*
X0008755Y0073257D01*
X0008841Y0073367D01*
X0008930Y0073476D01*
X0009022Y0073582D01*
X0009117Y0073685D01*
X0009214Y0073786D01*
X0009315Y0073883D01*
X0009418Y0073978D01*
X0009524Y0074070D01*
X0009633Y0074159D01*
X0009743Y0074245D01*
X0009857Y0074328D01*
X0009972Y0074407D01*
X0010090Y0074484D01*
X0010210Y0074557D01*
X0010331Y0074626D01*
X0010455Y0074692D01*
X0010581Y0074755D01*
X0010708Y0074814D01*
X0010837Y0074869D01*
X0010967Y0074921D01*
X0011099Y0074969D01*
X0011232Y0075014D01*
X0011366Y0075055D01*
X0011501Y0075092D01*
X0011637Y0075125D01*
X0011775Y0075154D01*
X0011912Y0075179D01*
X0012051Y0075201D01*
X0012190Y0075219D01*
X0012330Y0075232D01*
X0012470Y0075242D01*
X0012610Y0075248D01*
X0012750Y0075250D01*
X0012890Y0075248D01*
X0013030Y0075242D01*
X0013170Y0075232D01*
X0013310Y0075219D01*
X0013449Y0075201D01*
X0013588Y0075179D01*
X0013725Y0075154D01*
X0013863Y0075125D01*
X0013999Y0075092D01*
X0014134Y0075055D01*
X0014268Y0075014D01*
X0014401Y0074969D01*
X0014533Y0074921D01*
X0014663Y0074869D01*
X0014792Y0074814D01*
X0014919Y0074755D01*
X0015045Y0074692D01*
X0015169Y0074626D01*
X0015290Y0074557D01*
X0015410Y0074484D01*
X0015528Y0074407D01*
X0015643Y0074328D01*
X0015757Y0074245D01*
X0015867Y0074159D01*
X0015976Y0074070D01*
X0016082Y0073978D01*
X0016185Y0073883D01*
X0016286Y0073786D01*
X0016383Y0073685D01*
X0016478Y0073582D01*
X0016570Y0073476D01*
X0016659Y0073367D01*
X0016745Y0073257D01*
X0016828Y0073143D01*
X0016907Y0073028D01*
X0016984Y0072910D01*
X0017057Y0072790D01*
X0017126Y0072669D01*
X0017192Y0072545D01*
X0017255Y0072419D01*
X0017314Y0072292D01*
X0017369Y0072163D01*
X0017421Y0072033D01*
X0017469Y0071901D01*
X0017514Y0071768D01*
X0017555Y0071634D01*
X0017592Y0071499D01*
X0017625Y0071363D01*
X0017654Y0071225D01*
X0017679Y0071088D01*
X0017701Y0070949D01*
X0017719Y0070810D01*
X0017732Y0070670D01*
X0017742Y0070530D01*
X0017748Y0070390D01*
X0017750Y0070250D01*
D13*
X0017252Y0061603D02*
X0016017Y0061603D01*
X0015400Y0060986D01*
X0015400Y0058517D01*
X0016017Y0057900D01*
X0017252Y0057900D01*
X0017869Y0058517D01*
X0019083Y0057900D02*
X0021552Y0057900D01*
X0020318Y0057900D02*
X0020318Y0061603D01*
X0019083Y0060369D01*
X0017869Y0060986D02*
X0017252Y0061603D01*
X0025397Y0046686D02*
X0025397Y0044217D01*
X0029100Y0044217D01*
X0029100Y0043002D02*
X0026631Y0043002D01*
X0027248Y0044217D02*
X0027248Y0045451D01*
X0029100Y0043002D02*
X0029100Y0041151D01*
X0028483Y0040534D01*
X0026631Y0040534D01*
X0026014Y0039319D02*
X0025397Y0038702D01*
X0025397Y0037468D01*
X0026014Y0036851D01*
X0028483Y0036851D01*
X0026014Y0039319D01*
X0028483Y0039319D01*
X0029100Y0038702D01*
X0029100Y0037468D01*
X0028483Y0036851D01*
X0029100Y0035636D02*
X0029100Y0033167D01*
X0029100Y0034402D02*
X0025397Y0034402D01*
X0026631Y0033167D01*
X0023502Y0020353D02*
X0021650Y0020353D01*
X0021650Y0016650D01*
X0023502Y0016650D01*
X0024119Y0017267D01*
X0024119Y0017884D01*
X0023502Y0018502D01*
X0021650Y0018502D01*
X0023502Y0018502D02*
X0024119Y0019119D01*
X0024119Y0019736D01*
X0023502Y0020353D01*
X0025950Y0019119D02*
X0027185Y0019119D01*
X0027802Y0018502D01*
X0027802Y0016650D01*
X0025950Y0016650D01*
X0025333Y0017267D01*
X0025950Y0017884D01*
X0027802Y0017884D01*
X0029016Y0018502D02*
X0029633Y0019119D01*
X0031485Y0019119D01*
X0032699Y0018502D02*
X0033317Y0019119D01*
X0034551Y0019119D01*
X0035168Y0018502D01*
X0035168Y0017884D01*
X0032699Y0017884D01*
X0032699Y0017267D02*
X0032699Y0018502D01*
X0032699Y0017267D02*
X0033317Y0016650D01*
X0034551Y0016650D01*
X0036383Y0017267D02*
X0036383Y0018502D01*
X0037000Y0019119D01*
X0038851Y0019119D01*
X0038851Y0020353D02*
X0038851Y0016650D01*
X0037000Y0016650D01*
X0036383Y0017267D01*
X0036383Y0015353D02*
X0038234Y0015353D01*
X0038851Y0014736D01*
X0038851Y0012267D01*
X0038234Y0011650D01*
X0036383Y0011650D01*
X0036383Y0015353D01*
X0040066Y0014119D02*
X0040066Y0012267D01*
X0040683Y0011650D01*
X0042534Y0011650D01*
X0042534Y0014119D01*
X0043749Y0014119D02*
X0045600Y0014119D01*
X0046218Y0013502D01*
X0046218Y0012267D01*
X0045600Y0011650D01*
X0043749Y0011650D01*
X0043749Y0015353D01*
X0044366Y0016650D02*
X0043749Y0017267D01*
X0043749Y0018502D01*
X0044366Y0019119D01*
X0045600Y0019119D01*
X0046218Y0018502D01*
X0046218Y0017267D01*
X0045600Y0016650D01*
X0044366Y0016650D01*
X0047432Y0016650D02*
X0047432Y0019119D01*
X0049284Y0019119D01*
X0049901Y0018502D01*
X0049901Y0016650D01*
X0051732Y0015970D02*
X0051732Y0015353D01*
X0054798Y0017267D02*
X0055415Y0016650D01*
X0057267Y0016650D01*
X0057267Y0020353D01*
X0057267Y0019119D02*
X0055415Y0019119D01*
X0054798Y0018502D01*
X0054798Y0017267D01*
X0058481Y0017267D02*
X0058481Y0018502D01*
X0059099Y0019119D01*
X0060333Y0019119D01*
X0060950Y0018502D01*
X0060950Y0017884D01*
X0058481Y0017884D01*
X0058481Y0017267D02*
X0059099Y0016650D01*
X0060333Y0016650D01*
X0062165Y0016650D02*
X0064016Y0016650D01*
X0064633Y0017267D01*
X0064016Y0017884D01*
X0062782Y0017884D01*
X0062165Y0018502D01*
X0062782Y0019119D01*
X0064633Y0019119D01*
X0065848Y0019119D02*
X0066465Y0019119D01*
X0066465Y0016650D01*
X0065848Y0016650D02*
X0067082Y0016650D01*
X0068303Y0017267D02*
X0068920Y0016650D01*
X0070772Y0016650D01*
X0070772Y0016033D02*
X0070772Y0019119D01*
X0068920Y0019119D01*
X0068303Y0018502D01*
X0068303Y0017267D01*
X0069538Y0015416D02*
X0070155Y0015416D01*
X0070772Y0016033D01*
X0071986Y0016650D02*
X0071986Y0019119D01*
X0073838Y0019119D01*
X0074455Y0018502D01*
X0074455Y0016650D01*
X0074452Y0015353D02*
X0072600Y0015353D01*
X0072600Y0011650D01*
X0074452Y0011650D01*
X0075069Y0012267D01*
X0075069Y0012884D01*
X0074452Y0013502D01*
X0072600Y0013502D01*
X0074452Y0013502D02*
X0075069Y0014119D01*
X0075069Y0014736D01*
X0074452Y0015353D01*
X0076283Y0013502D02*
X0076900Y0014119D01*
X0078135Y0014119D01*
X0078752Y0013502D01*
X0078752Y0012267D01*
X0078135Y0011650D01*
X0076900Y0011650D01*
X0076283Y0012267D01*
X0076283Y0013502D01*
X0079966Y0013502D02*
X0079966Y0012267D01*
X0080584Y0011650D01*
X0081818Y0011650D01*
X0083650Y0011650D02*
X0086118Y0011650D01*
X0083650Y0011650D02*
X0086118Y0014119D01*
X0083650Y0014119D01*
X0082435Y0013502D02*
X0081818Y0014119D01*
X0080584Y0014119D01*
X0079966Y0013502D01*
X0079966Y0012884D02*
X0082435Y0012884D01*
X0082435Y0013502D01*
X0084270Y0015416D02*
X0084887Y0015416D01*
X0085505Y0016033D01*
X0085505Y0019119D01*
X0083036Y0019119D02*
X0083036Y0017267D01*
X0083653Y0016650D01*
X0085505Y0016650D01*
X0081821Y0017267D02*
X0081821Y0018502D01*
X0081204Y0019119D01*
X0079353Y0019119D01*
X0079353Y0020353D02*
X0079353Y0016650D01*
X0081204Y0016650D01*
X0081821Y0017267D01*
X0067693Y0012267D02*
X0067693Y0011650D01*
X0067075Y0011650D01*
X0067075Y0012267D01*
X0067693Y0012267D01*
X0065861Y0011650D02*
X0063392Y0011650D01*
X0063392Y0015353D01*
X0065861Y0015353D01*
X0064627Y0013502D02*
X0063392Y0013502D01*
X0058488Y0012267D02*
X0058488Y0011650D01*
X0057871Y0011650D01*
X0057871Y0012267D01*
X0058488Y0012267D01*
X0058488Y0011650D02*
X0057254Y0010416D01*
X0056643Y0009119D02*
X0056026Y0008502D01*
X0056026Y0007267D01*
X0056643Y0006650D01*
X0058495Y0006650D01*
X0059709Y0006650D02*
X0059709Y0010353D01*
X0060326Y0009119D02*
X0061561Y0009119D01*
X0062178Y0008502D01*
X0062178Y0006650D01*
X0063392Y0006650D02*
X0063392Y0010353D01*
X0065244Y0009119D02*
X0063392Y0007884D01*
X0065244Y0006650D01*
X0066462Y0007267D02*
X0067079Y0006650D01*
X0068313Y0006650D01*
X0068930Y0007267D01*
X0068930Y0008502D01*
X0068313Y0009119D01*
X0067079Y0009119D01*
X0066462Y0008502D01*
X0066462Y0007267D01*
X0070145Y0009119D02*
X0071379Y0006650D01*
X0072613Y0009119D01*
X0060326Y0009119D02*
X0059709Y0008502D01*
X0058495Y0009119D02*
X0056643Y0009119D01*
X0054812Y0009119D02*
X0054812Y0006033D01*
X0054194Y0005416D01*
X0053577Y0005416D01*
X0052960Y0006650D02*
X0054812Y0006650D01*
X0052960Y0006650D02*
X0052343Y0007267D01*
X0052343Y0009119D01*
X0051125Y0009119D02*
X0050508Y0009119D01*
X0049274Y0007884D01*
X0048059Y0007884D02*
X0047442Y0008502D01*
X0045590Y0008502D01*
X0047442Y0008502D02*
X0048059Y0009119D01*
X0048059Y0009736D01*
X0047442Y0010353D01*
X0045590Y0010353D01*
X0045590Y0006650D01*
X0047442Y0006650D01*
X0048059Y0007267D01*
X0048059Y0007884D01*
X0049274Y0006650D02*
X0049274Y0009119D01*
X0049284Y0011650D02*
X0048049Y0011650D01*
X0047432Y0012267D01*
X0047432Y0013502D01*
X0048049Y0014119D01*
X0049284Y0014119D01*
X0049901Y0013502D01*
X0049901Y0012267D01*
X0049284Y0011650D01*
X0051115Y0011650D02*
X0052350Y0011650D01*
X0051732Y0011650D02*
X0051732Y0014119D01*
X0051115Y0014119D01*
X0053571Y0013502D02*
X0054188Y0014119D01*
X0056039Y0014119D01*
X0055422Y0012884D02*
X0054188Y0012884D01*
X0053571Y0013502D01*
X0055422Y0012884D02*
X0056039Y0012267D01*
X0055422Y0011650D01*
X0053571Y0011650D01*
X0040683Y0007267D02*
X0040683Y0006650D01*
X0040066Y0006650D01*
X0040066Y0007267D01*
X0040683Y0007267D01*
X0038851Y0006650D02*
X0036383Y0006650D01*
X0036383Y0010353D01*
X0038851Y0010353D01*
X0037617Y0008502D02*
X0036383Y0008502D01*
X0031485Y0009119D02*
X0029633Y0009119D01*
X0029016Y0008502D01*
X0029016Y0007267D01*
X0029633Y0006650D01*
X0031485Y0006650D01*
X0031485Y0010353D01*
X0031475Y0011650D02*
X0030858Y0011650D01*
X0030858Y0012267D01*
X0031475Y0012267D01*
X0031475Y0011650D01*
X0029643Y0013502D02*
X0029026Y0012884D01*
X0027175Y0012884D01*
X0025950Y0012267D02*
X0025333Y0012267D01*
X0025333Y0011650D01*
X0025950Y0011650D01*
X0025950Y0012267D01*
X0027175Y0011650D02*
X0027175Y0015353D01*
X0029026Y0015353D01*
X0029643Y0014736D01*
X0029643Y0013502D01*
X0023502Y0012267D02*
X0023502Y0015353D01*
X0024119Y0015353D02*
X0022884Y0015353D01*
X0029016Y0016650D02*
X0030868Y0016650D01*
X0031485Y0017267D01*
X0030868Y0017884D01*
X0029633Y0017884D01*
X0029016Y0018502D01*
X0023502Y0012267D02*
X0022884Y0011650D01*
X0022267Y0011650D01*
X0021650Y0012267D01*
X0022267Y0009119D02*
X0023502Y0009119D01*
X0024119Y0008502D01*
X0024119Y0006650D01*
X0022267Y0006650D01*
X0021650Y0007267D01*
X0022267Y0007884D01*
X0024119Y0007884D01*
X0025333Y0006650D02*
X0025333Y0009119D01*
X0027185Y0009119D01*
X0027802Y0008502D01*
X0027802Y0006650D01*
X0066465Y0020353D02*
X0066465Y0020970D01*
D14*
X0082750Y0033950D02*
X0047750Y0033950D01*
X0109000Y0033950D02*
X0149000Y0033950D01*
X0197750Y0033950D02*
X0237750Y0033950D01*
M02*
