G75*
%MOIN*%
%OFA0B0*%
%FSLAX25Y25*%
%IPPOS*%
%LPD*%
%AMOC8*
5,1,8,0,0,1.08239X$1,22.5*
%
%ADD10R,0.02600X0.08000*%
%ADD11R,0.09449X0.09449*%
D10*
X0050250Y0028150D03*
X0055250Y0028150D03*
X0060250Y0028150D03*
X0065250Y0028150D03*
X0070250Y0028150D03*
X0075250Y0028150D03*
X0080250Y0028150D03*
X0111500Y0028150D03*
X0116500Y0028150D03*
X0121500Y0028150D03*
X0126500Y0028150D03*
X0131500Y0028150D03*
X0136500Y0028150D03*
X0141500Y0028150D03*
X0146500Y0028150D03*
X0200250Y0028150D03*
X0205250Y0028150D03*
X0210250Y0028150D03*
X0215250Y0028150D03*
X0220250Y0028150D03*
X0225250Y0028150D03*
X0230250Y0028150D03*
X0235250Y0028150D03*
X0235250Y0052350D03*
X0230250Y0052350D03*
X0225250Y0052350D03*
X0220250Y0052350D03*
X0215250Y0052350D03*
X0210250Y0052350D03*
X0205250Y0052350D03*
X0200250Y0052350D03*
X0146500Y0052350D03*
X0141500Y0052350D03*
X0136500Y0052350D03*
X0131500Y0052350D03*
X0126500Y0052350D03*
X0121500Y0052350D03*
X0116500Y0052350D03*
X0111500Y0052350D03*
X0080250Y0052350D03*
X0075250Y0052350D03*
X0070250Y0052350D03*
X0065250Y0052350D03*
X0060250Y0052350D03*
X0055250Y0052350D03*
X0050250Y0052350D03*
D11*
X0017750Y0050093D03*
X0017750Y0030407D03*
M02*
