G75*
%MOIN*%
%OFA0B0*%
%FSLAX25Y25*%
%IPPOS*%
%LPD*%
%AMOC8*
5,1,8,0,0,1.08239X$1,22.5*
%
%ADD10C,0.01000*%
%ADD11C,0.00500*%
%ADD12C,0.00300*%
%ADD13C,0.00400*%
D10*
X0007750Y0004000D02*
X0004000Y0007750D01*
X0004000Y0072750D01*
X0007750Y0076500D01*
X0247750Y0076500D01*
X0251500Y0072750D01*
X0251500Y0007750D01*
X0247750Y0004000D01*
X0007750Y0004000D01*
X0180910Y0066500D02*
X0180912Y0066649D01*
X0180918Y0066799D01*
X0180928Y0066948D01*
X0180942Y0067097D01*
X0180960Y0067245D01*
X0180982Y0067393D01*
X0181008Y0067540D01*
X0181037Y0067687D01*
X0181071Y0067832D01*
X0181109Y0067977D01*
X0181150Y0068120D01*
X0181195Y0068263D01*
X0181244Y0068404D01*
X0181297Y0068544D01*
X0181354Y0068682D01*
X0181414Y0068819D01*
X0181478Y0068954D01*
X0181545Y0069088D01*
X0181616Y0069219D01*
X0181690Y0069349D01*
X0181768Y0069476D01*
X0181849Y0069602D01*
X0181934Y0069725D01*
X0182022Y0069846D01*
X0182113Y0069964D01*
X0182207Y0070080D01*
X0182304Y0070194D01*
X0182405Y0070305D01*
X0182508Y0070413D01*
X0182614Y0070518D01*
X0182723Y0070621D01*
X0182834Y0070720D01*
X0182948Y0070817D01*
X0183065Y0070910D01*
X0183184Y0071000D01*
X0183306Y0071087D01*
X0183429Y0071171D01*
X0183555Y0071252D01*
X0183683Y0071329D01*
X0183814Y0071402D01*
X0183946Y0071472D01*
X0184079Y0071539D01*
X0184215Y0071602D01*
X0184352Y0071661D01*
X0184491Y0071716D01*
X0184631Y0071768D01*
X0184773Y0071816D01*
X0184915Y0071861D01*
X0185059Y0071901D01*
X0185204Y0071938D01*
X0185350Y0071970D01*
X0185497Y0071999D01*
X0185644Y0072024D01*
X0185792Y0072045D01*
X0185940Y0072062D01*
X0186089Y0072075D01*
X0186239Y0072084D01*
X0186388Y0072089D01*
X0186537Y0072090D01*
X0186687Y0072087D01*
X0186836Y0072080D01*
X0186985Y0072069D01*
X0187134Y0072054D01*
X0187282Y0072035D01*
X0187430Y0072012D01*
X0187577Y0071985D01*
X0187723Y0071955D01*
X0187868Y0071920D01*
X0188013Y0071881D01*
X0188156Y0071839D01*
X0188298Y0071793D01*
X0188439Y0071743D01*
X0188579Y0071689D01*
X0188717Y0071632D01*
X0188853Y0071571D01*
X0188988Y0071506D01*
X0189121Y0071438D01*
X0189252Y0071366D01*
X0189381Y0071290D01*
X0189508Y0071212D01*
X0189633Y0071130D01*
X0189755Y0071044D01*
X0189876Y0070956D01*
X0189994Y0070864D01*
X0190109Y0070769D01*
X0190222Y0070671D01*
X0190332Y0070570D01*
X0190439Y0070466D01*
X0190544Y0070359D01*
X0190646Y0070250D01*
X0190745Y0070138D01*
X0190840Y0070023D01*
X0190933Y0069905D01*
X0191022Y0069786D01*
X0191109Y0069664D01*
X0191192Y0069539D01*
X0191271Y0069413D01*
X0191347Y0069284D01*
X0191420Y0069154D01*
X0191489Y0069021D01*
X0191555Y0068887D01*
X0191617Y0068751D01*
X0191675Y0068613D01*
X0191730Y0068474D01*
X0191781Y0068334D01*
X0191828Y0068192D01*
X0191871Y0068049D01*
X0191911Y0067905D01*
X0191946Y0067759D01*
X0191978Y0067613D01*
X0192006Y0067467D01*
X0192030Y0067319D01*
X0192050Y0067171D01*
X0192066Y0067022D01*
X0192078Y0066873D01*
X0192086Y0066724D01*
X0192090Y0066575D01*
X0192090Y0066425D01*
X0192086Y0066276D01*
X0192078Y0066127D01*
X0192066Y0065978D01*
X0192050Y0065829D01*
X0192030Y0065681D01*
X0192006Y0065533D01*
X0191978Y0065387D01*
X0191946Y0065241D01*
X0191911Y0065095D01*
X0191871Y0064951D01*
X0191828Y0064808D01*
X0191781Y0064666D01*
X0191730Y0064526D01*
X0191675Y0064387D01*
X0191617Y0064249D01*
X0191555Y0064113D01*
X0191489Y0063979D01*
X0191420Y0063846D01*
X0191347Y0063716D01*
X0191271Y0063587D01*
X0191192Y0063461D01*
X0191109Y0063336D01*
X0191022Y0063214D01*
X0190933Y0063095D01*
X0190840Y0062977D01*
X0190745Y0062862D01*
X0190646Y0062750D01*
X0190544Y0062641D01*
X0190439Y0062534D01*
X0190332Y0062430D01*
X0190222Y0062329D01*
X0190109Y0062231D01*
X0189994Y0062136D01*
X0189876Y0062044D01*
X0189755Y0061956D01*
X0189633Y0061870D01*
X0189508Y0061788D01*
X0189381Y0061710D01*
X0189252Y0061634D01*
X0189121Y0061562D01*
X0188988Y0061494D01*
X0188853Y0061429D01*
X0188717Y0061368D01*
X0188579Y0061311D01*
X0188439Y0061257D01*
X0188298Y0061207D01*
X0188156Y0061161D01*
X0188013Y0061119D01*
X0187868Y0061080D01*
X0187723Y0061045D01*
X0187577Y0061015D01*
X0187430Y0060988D01*
X0187282Y0060965D01*
X0187134Y0060946D01*
X0186985Y0060931D01*
X0186836Y0060920D01*
X0186687Y0060913D01*
X0186537Y0060910D01*
X0186388Y0060911D01*
X0186239Y0060916D01*
X0186089Y0060925D01*
X0185940Y0060938D01*
X0185792Y0060955D01*
X0185644Y0060976D01*
X0185497Y0061001D01*
X0185350Y0061030D01*
X0185204Y0061062D01*
X0185059Y0061099D01*
X0184915Y0061139D01*
X0184773Y0061184D01*
X0184631Y0061232D01*
X0184491Y0061284D01*
X0184352Y0061339D01*
X0184215Y0061398D01*
X0184079Y0061461D01*
X0183946Y0061528D01*
X0183814Y0061598D01*
X0183683Y0061671D01*
X0183555Y0061748D01*
X0183429Y0061829D01*
X0183306Y0061913D01*
X0183184Y0062000D01*
X0183065Y0062090D01*
X0182948Y0062183D01*
X0182834Y0062280D01*
X0182723Y0062379D01*
X0182614Y0062482D01*
X0182508Y0062587D01*
X0182405Y0062695D01*
X0182304Y0062806D01*
X0182207Y0062920D01*
X0182113Y0063036D01*
X0182022Y0063154D01*
X0181934Y0063275D01*
X0181849Y0063398D01*
X0181768Y0063524D01*
X0181690Y0063651D01*
X0181616Y0063781D01*
X0181545Y0063912D01*
X0181478Y0064046D01*
X0181414Y0064181D01*
X0181354Y0064318D01*
X0181297Y0064456D01*
X0181244Y0064596D01*
X0181195Y0064737D01*
X0181150Y0064880D01*
X0181109Y0065023D01*
X0181071Y0065168D01*
X0181037Y0065313D01*
X0181008Y0065460D01*
X0180982Y0065607D01*
X0180960Y0065755D01*
X0180942Y0065903D01*
X0180928Y0066052D01*
X0180918Y0066201D01*
X0180912Y0066351D01*
X0180910Y0066500D01*
D11*
X0184605Y0063750D02*
X0186440Y0065585D01*
X0188275Y0063750D01*
X0188275Y0069255D01*
X0184605Y0069255D02*
X0184605Y0063750D01*
X0058750Y0065500D02*
X0058750Y0071005D01*
X0058750Y0067335D02*
X0055080Y0071005D01*
X0053225Y0070087D02*
X0053225Y0069170D01*
X0052308Y0068252D01*
X0050473Y0068252D01*
X0049555Y0067335D01*
X0049555Y0066417D01*
X0050473Y0065500D01*
X0052308Y0065500D01*
X0053225Y0066417D01*
X0055080Y0065500D02*
X0057833Y0068252D01*
X0053225Y0070087D02*
X0052308Y0071005D01*
X0050473Y0071005D01*
X0049555Y0070087D01*
X0047701Y0070087D02*
X0046783Y0071005D01*
X0044948Y0071005D01*
X0044031Y0070087D01*
X0042176Y0070087D02*
X0041258Y0071005D01*
X0039423Y0071005D01*
X0038506Y0070087D01*
X0036651Y0071005D02*
X0033899Y0071005D01*
X0032981Y0070087D01*
X0032981Y0068252D01*
X0033899Y0067335D01*
X0036651Y0067335D01*
X0034816Y0067335D02*
X0032981Y0065500D01*
X0031126Y0065500D02*
X0027457Y0065500D01*
X0025602Y0065500D02*
X0025602Y0071005D01*
X0022849Y0071005D01*
X0021932Y0070087D01*
X0021932Y0068252D01*
X0022849Y0067335D01*
X0025602Y0067335D01*
X0029292Y0068252D02*
X0031126Y0068252D01*
X0031126Y0065500D02*
X0031126Y0071005D01*
X0027457Y0071005D01*
X0036651Y0071005D02*
X0036651Y0065500D01*
X0038506Y0066417D02*
X0039423Y0065500D01*
X0041258Y0065500D01*
X0042176Y0066417D01*
X0042176Y0070087D01*
X0047701Y0070087D02*
X0047701Y0066417D01*
X0046783Y0065500D01*
X0044948Y0065500D01*
X0044031Y0066417D01*
X0042640Y0063505D02*
X0042640Y0058000D01*
X0044475Y0058000D02*
X0040805Y0058000D01*
X0038951Y0058000D02*
X0038033Y0058000D01*
X0038033Y0058917D01*
X0038951Y0058917D01*
X0038951Y0058000D01*
X0036188Y0058917D02*
X0032518Y0062587D01*
X0032518Y0058917D01*
X0033436Y0058000D01*
X0035271Y0058000D01*
X0036188Y0058917D01*
X0036188Y0062587D01*
X0035271Y0063505D01*
X0033436Y0063505D01*
X0032518Y0062587D01*
X0042640Y0063505D02*
X0044475Y0061670D01*
X0046330Y0061670D02*
X0048165Y0058000D01*
X0050000Y0061670D01*
X0151467Y0012505D02*
X0151467Y0007000D01*
X0153302Y0007000D02*
X0149632Y0007000D01*
X0155157Y0007000D02*
X0158827Y0007000D01*
X0155157Y0010670D01*
X0155157Y0011587D01*
X0156075Y0012505D01*
X0157910Y0012505D01*
X0158827Y0011587D01*
X0160682Y0011587D02*
X0164352Y0007917D01*
X0163434Y0007000D01*
X0161599Y0007000D01*
X0160682Y0007917D01*
X0160682Y0011587D01*
X0161599Y0012505D01*
X0163434Y0012505D01*
X0164352Y0011587D01*
X0164352Y0007917D01*
X0166207Y0007000D02*
X0169876Y0007000D01*
X0166207Y0010670D01*
X0166207Y0011587D01*
X0167124Y0012505D01*
X0168959Y0012505D01*
X0169876Y0011587D01*
X0177256Y0011587D02*
X0178173Y0012505D01*
X0180008Y0012505D01*
X0180926Y0011587D01*
X0180926Y0007917D01*
X0180008Y0007000D01*
X0178173Y0007000D01*
X0177256Y0007917D01*
X0182781Y0007917D02*
X0183698Y0007000D01*
X0185533Y0007000D01*
X0186451Y0007917D01*
X0188305Y0007917D02*
X0188305Y0008835D01*
X0189223Y0009752D01*
X0191975Y0009752D01*
X0193830Y0009752D02*
X0194748Y0008835D01*
X0197500Y0008835D01*
X0195665Y0008835D02*
X0193830Y0007000D01*
X0191975Y0007000D02*
X0189223Y0007000D01*
X0188305Y0007917D01*
X0191975Y0007000D02*
X0191975Y0012505D01*
X0189223Y0012505D01*
X0188305Y0011587D01*
X0188305Y0010670D01*
X0189223Y0009752D01*
X0193830Y0009752D02*
X0193830Y0011587D01*
X0194748Y0012505D01*
X0197500Y0012505D01*
X0197500Y0007000D01*
X0186451Y0010670D02*
X0185533Y0009752D01*
X0183698Y0009752D01*
X0182781Y0008835D01*
X0182781Y0007917D01*
X0186451Y0010670D02*
X0186451Y0011587D01*
X0185533Y0012505D01*
X0183698Y0012505D01*
X0182781Y0011587D01*
X0153302Y0010670D02*
X0151467Y0012505D01*
D12*
X0085100Y0012267D02*
X0084483Y0011650D01*
X0083866Y0011650D01*
X0083248Y0012267D01*
X0083248Y0015353D01*
X0082631Y0015353D02*
X0083866Y0015353D01*
X0083248Y0016650D02*
X0085100Y0016650D01*
X0085100Y0020353D01*
X0083248Y0020353D01*
X0082631Y0019736D01*
X0082631Y0019119D01*
X0083248Y0018502D01*
X0085100Y0018502D01*
X0083248Y0018502D02*
X0082631Y0017884D01*
X0082631Y0017267D01*
X0083248Y0016650D01*
X0081417Y0017267D02*
X0080800Y0017884D01*
X0078948Y0017884D01*
X0078948Y0018502D02*
X0078948Y0016650D01*
X0080800Y0016650D01*
X0081417Y0017267D01*
X0079565Y0019119D02*
X0078948Y0018502D01*
X0079565Y0019119D02*
X0080800Y0019119D01*
X0077734Y0018502D02*
X0077117Y0019119D01*
X0075265Y0019119D01*
X0074051Y0018502D02*
X0073433Y0019119D01*
X0072199Y0019119D01*
X0071582Y0018502D01*
X0071582Y0017884D01*
X0074051Y0017884D01*
X0074051Y0017267D02*
X0074051Y0018502D01*
X0074051Y0017267D02*
X0073433Y0016650D01*
X0072199Y0016650D01*
X0070367Y0017267D02*
X0070367Y0018502D01*
X0069750Y0019119D01*
X0067899Y0019119D01*
X0067899Y0020353D02*
X0067899Y0016650D01*
X0069750Y0016650D01*
X0070367Y0017267D01*
X0070367Y0015353D02*
X0068516Y0015353D01*
X0067899Y0014736D01*
X0067899Y0012267D01*
X0068516Y0011650D01*
X0070367Y0011650D01*
X0070367Y0015353D01*
X0066684Y0014119D02*
X0066684Y0012267D01*
X0066067Y0011650D01*
X0064216Y0011650D01*
X0064216Y0014119D01*
X0063001Y0014119D02*
X0061150Y0014119D01*
X0060532Y0013502D01*
X0060532Y0012267D01*
X0061150Y0011650D01*
X0063001Y0011650D01*
X0063001Y0015353D01*
X0062384Y0016650D02*
X0061150Y0016650D01*
X0060532Y0017267D01*
X0060532Y0018502D01*
X0061150Y0019119D01*
X0062384Y0019119D01*
X0063001Y0018502D01*
X0063001Y0017267D01*
X0062384Y0016650D01*
X0059318Y0016650D02*
X0059318Y0019119D01*
X0057466Y0019119D01*
X0056849Y0018502D01*
X0056849Y0016650D01*
X0055018Y0015970D02*
X0055018Y0015353D01*
X0051952Y0017267D02*
X0051335Y0016650D01*
X0049483Y0016650D01*
X0049483Y0020353D01*
X0049483Y0019119D02*
X0051335Y0019119D01*
X0051952Y0018502D01*
X0051952Y0017267D01*
X0048269Y0017267D02*
X0047651Y0016650D01*
X0046417Y0016650D01*
X0044585Y0016650D02*
X0042734Y0016650D01*
X0042117Y0017267D01*
X0042734Y0017884D01*
X0043968Y0017884D01*
X0044585Y0018502D01*
X0043968Y0019119D01*
X0042117Y0019119D01*
X0040902Y0019119D02*
X0040285Y0019119D01*
X0040285Y0016650D01*
X0040902Y0016650D02*
X0039668Y0016650D01*
X0038447Y0017267D02*
X0037830Y0016650D01*
X0035978Y0016650D01*
X0035978Y0016033D02*
X0035978Y0019119D01*
X0037830Y0019119D01*
X0038447Y0018502D01*
X0038447Y0017267D01*
X0037212Y0015416D02*
X0036595Y0015416D01*
X0035978Y0016033D01*
X0034764Y0016650D02*
X0034764Y0019119D01*
X0032912Y0019119D01*
X0032295Y0018502D01*
X0032295Y0016650D01*
X0032298Y0015353D02*
X0031681Y0014736D01*
X0031681Y0014119D01*
X0032298Y0013502D01*
X0034150Y0013502D01*
X0032298Y0013502D02*
X0031681Y0012884D01*
X0031681Y0012267D01*
X0032298Y0011650D01*
X0034150Y0011650D01*
X0034150Y0015353D01*
X0032298Y0015353D01*
X0030467Y0013502D02*
X0029850Y0014119D01*
X0028615Y0014119D01*
X0027998Y0013502D01*
X0027998Y0012267D01*
X0028615Y0011650D01*
X0029850Y0011650D01*
X0030467Y0012267D01*
X0030467Y0013502D01*
X0026784Y0013502D02*
X0026784Y0012267D01*
X0026166Y0011650D01*
X0024932Y0011650D01*
X0023100Y0011650D02*
X0020632Y0011650D01*
X0023100Y0011650D02*
X0020632Y0014119D01*
X0023100Y0014119D01*
X0024315Y0013502D02*
X0024932Y0014119D01*
X0026166Y0014119D01*
X0026784Y0013502D01*
X0026784Y0012884D02*
X0024315Y0012884D01*
X0024315Y0013502D01*
X0022480Y0015416D02*
X0021863Y0015416D01*
X0021245Y0016033D01*
X0021245Y0019119D01*
X0023714Y0019119D02*
X0023714Y0017267D01*
X0023097Y0016650D01*
X0021245Y0016650D01*
X0024929Y0017267D02*
X0024929Y0018502D01*
X0025546Y0019119D01*
X0027397Y0019119D01*
X0027397Y0020353D02*
X0027397Y0016650D01*
X0025546Y0016650D01*
X0024929Y0017267D01*
X0039057Y0012267D02*
X0039057Y0011650D01*
X0039675Y0011650D01*
X0039675Y0012267D01*
X0039057Y0012267D01*
X0040889Y0011650D02*
X0043358Y0011650D01*
X0043358Y0015353D01*
X0040889Y0015353D01*
X0048269Y0017267D02*
X0048269Y0018502D01*
X0047651Y0019119D01*
X0046417Y0019119D01*
X0045800Y0018502D01*
X0045800Y0017884D01*
X0048269Y0017884D01*
X0040285Y0020353D02*
X0040285Y0020970D01*
X0050711Y0014119D02*
X0052562Y0014119D01*
X0053179Y0013502D01*
X0052562Y0012884D01*
X0051328Y0012884D01*
X0050711Y0012267D01*
X0051328Y0011650D01*
X0053179Y0011650D01*
X0054400Y0011650D02*
X0055635Y0011650D01*
X0055018Y0011650D02*
X0055018Y0014119D01*
X0055635Y0014119D01*
X0056849Y0013502D02*
X0057466Y0014119D01*
X0058701Y0014119D01*
X0059318Y0013502D01*
X0059318Y0012267D01*
X0058701Y0011650D01*
X0057466Y0011650D01*
X0056849Y0012267D01*
X0056849Y0013502D01*
X0048879Y0012267D02*
X0048879Y0011650D01*
X0048262Y0011650D01*
X0048262Y0012267D01*
X0048879Y0012267D01*
X0048262Y0011650D02*
X0049496Y0010416D01*
X0050107Y0009119D02*
X0048255Y0009119D01*
X0047041Y0008502D02*
X0046424Y0009119D01*
X0045189Y0009119D01*
X0044572Y0008502D01*
X0044572Y0006650D01*
X0043358Y0006650D02*
X0043358Y0010353D01*
X0041506Y0009119D02*
X0043358Y0007884D01*
X0041506Y0006650D01*
X0040288Y0007267D02*
X0039671Y0006650D01*
X0038437Y0006650D01*
X0037820Y0007267D01*
X0037820Y0008502D01*
X0038437Y0009119D01*
X0039671Y0009119D01*
X0040288Y0008502D01*
X0040288Y0007267D01*
X0036605Y0009119D02*
X0035371Y0006650D01*
X0034137Y0009119D01*
X0042123Y0013502D02*
X0043358Y0013502D01*
X0047041Y0010353D02*
X0047041Y0006650D01*
X0048255Y0006650D02*
X0050107Y0006650D01*
X0050724Y0007267D01*
X0050724Y0008502D01*
X0050107Y0009119D01*
X0051938Y0009119D02*
X0051938Y0006033D01*
X0052556Y0005416D01*
X0053173Y0005416D01*
X0053790Y0006650D02*
X0051938Y0006650D01*
X0053790Y0006650D02*
X0054407Y0007267D01*
X0054407Y0009119D01*
X0055625Y0009119D02*
X0056242Y0009119D01*
X0057476Y0007884D01*
X0058691Y0007884D02*
X0058691Y0007267D01*
X0059308Y0006650D01*
X0061160Y0006650D01*
X0061160Y0010353D01*
X0059308Y0010353D01*
X0058691Y0009736D01*
X0058691Y0009119D01*
X0059308Y0008502D01*
X0061160Y0008502D01*
X0059308Y0008502D02*
X0058691Y0007884D01*
X0057476Y0006650D02*
X0057476Y0009119D01*
X0066067Y0007267D02*
X0066067Y0006650D01*
X0066684Y0006650D01*
X0066684Y0007267D01*
X0066067Y0007267D01*
X0067899Y0006650D02*
X0070367Y0006650D01*
X0070367Y0010353D01*
X0067899Y0010353D01*
X0069133Y0008502D02*
X0070367Y0008502D01*
X0075265Y0009119D02*
X0077117Y0009119D01*
X0077734Y0008502D01*
X0077734Y0007267D01*
X0077117Y0006650D01*
X0075265Y0006650D01*
X0075265Y0010353D01*
X0075275Y0011650D02*
X0075892Y0011650D01*
X0075892Y0012267D01*
X0075275Y0012267D01*
X0075275Y0011650D01*
X0077107Y0013502D02*
X0077724Y0012884D01*
X0079575Y0012884D01*
X0080800Y0012267D02*
X0080800Y0011650D01*
X0081417Y0011650D01*
X0081417Y0012267D01*
X0080800Y0012267D01*
X0079575Y0011650D02*
X0079575Y0015353D01*
X0077724Y0015353D01*
X0077107Y0014736D01*
X0077107Y0013502D01*
X0077734Y0016650D02*
X0075882Y0016650D01*
X0075265Y0017267D01*
X0075882Y0017884D01*
X0077117Y0017884D01*
X0077734Y0018502D01*
X0079565Y0009119D02*
X0078948Y0008502D01*
X0078948Y0006650D01*
X0081417Y0006650D02*
X0081417Y0009119D01*
X0079565Y0009119D01*
X0082631Y0008502D02*
X0082631Y0006650D01*
X0084483Y0006650D01*
X0085100Y0007267D01*
X0084483Y0007884D01*
X0082631Y0007884D01*
X0082631Y0008502D02*
X0083248Y0009119D01*
X0084483Y0009119D01*
D13*
X0156894Y0017950D02*
X0159196Y0019485D01*
X0156894Y0021019D01*
X0159196Y0022554D02*
X0159196Y0017950D01*
X0160731Y0017950D02*
X0163800Y0017950D01*
X0162265Y0017950D02*
X0162265Y0022554D01*
X0163800Y0021019D01*
X0171894Y0021019D02*
X0174196Y0019485D01*
X0171894Y0017950D01*
X0174196Y0017950D02*
X0174196Y0022554D01*
X0177265Y0022554D02*
X0177265Y0017950D01*
X0175731Y0017950D02*
X0178800Y0017950D01*
X0178800Y0021019D02*
X0177265Y0022554D01*
X0179200Y0026242D02*
X0183804Y0026242D01*
X0183804Y0028544D01*
X0183037Y0029311D01*
X0181502Y0029311D01*
X0180735Y0028544D01*
X0180735Y0026242D01*
X0180735Y0027777D02*
X0179200Y0029311D01*
X0179967Y0030846D02*
X0179200Y0031613D01*
X0179200Y0033148D01*
X0179967Y0033915D01*
X0180735Y0033915D01*
X0181502Y0033148D01*
X0181502Y0030846D01*
X0179967Y0030846D01*
X0181502Y0030846D02*
X0183037Y0032381D01*
X0183804Y0033915D01*
X0179741Y0037950D02*
X0176671Y0037950D01*
X0175137Y0037950D02*
X0175137Y0042554D01*
X0178206Y0042554D02*
X0178206Y0037950D01*
X0175137Y0039485D02*
X0172835Y0041019D01*
X0175137Y0039485D02*
X0172835Y0037950D01*
X0178206Y0042554D02*
X0179741Y0041019D01*
X0179200Y0043742D02*
X0183804Y0043742D01*
X0183804Y0046044D01*
X0183037Y0046811D01*
X0181502Y0046811D01*
X0180735Y0046044D01*
X0180735Y0043742D01*
X0180735Y0045277D02*
X0179200Y0046811D01*
X0179967Y0048346D02*
X0179200Y0049113D01*
X0179200Y0050648D01*
X0179967Y0051415D01*
X0180735Y0051415D01*
X0181502Y0050648D01*
X0181502Y0049881D01*
X0181502Y0050648D02*
X0182269Y0051415D01*
X0183037Y0051415D01*
X0183804Y0050648D01*
X0183804Y0049113D01*
X0183037Y0048346D01*
X0187154Y0049200D02*
X0187154Y0053804D01*
X0184085Y0053804D01*
X0188689Y0051502D02*
X0189456Y0052269D01*
X0191758Y0052269D01*
X0191758Y0049200D01*
X0193293Y0049967D02*
X0194060Y0049200D01*
X0195595Y0049200D01*
X0196362Y0049967D01*
X0193293Y0053037D01*
X0193293Y0049967D01*
X0196362Y0049967D02*
X0196362Y0053037D01*
X0195595Y0053804D01*
X0194060Y0053804D01*
X0193293Y0053037D01*
X0197896Y0053037D02*
X0200966Y0049967D01*
X0200198Y0049200D01*
X0198664Y0049200D01*
X0197896Y0049967D01*
X0197896Y0053037D01*
X0198664Y0053804D01*
X0200198Y0053804D01*
X0200966Y0053037D01*
X0200966Y0049967D01*
X0202500Y0049200D02*
X0205570Y0049200D01*
X0204035Y0049200D02*
X0204035Y0053804D01*
X0205570Y0052269D01*
X0188689Y0051502D02*
X0188689Y0049200D01*
X0187154Y0051502D02*
X0185619Y0051502D01*
X0168804Y0050648D02*
X0166502Y0048346D01*
X0166502Y0051415D01*
X0164200Y0050648D02*
X0168804Y0050648D01*
X0168037Y0046811D02*
X0166502Y0046811D01*
X0165735Y0046044D01*
X0165735Y0043742D01*
X0164200Y0043742D02*
X0168804Y0043742D01*
X0168804Y0046044D01*
X0168037Y0046811D01*
X0165735Y0045277D02*
X0164200Y0046811D01*
X0163206Y0042554D02*
X0163206Y0037950D01*
X0164741Y0037950D02*
X0161671Y0037950D01*
X0160137Y0037950D02*
X0160137Y0042554D01*
X0163206Y0042554D02*
X0164741Y0041019D01*
X0160137Y0039485D02*
X0157835Y0041019D01*
X0160137Y0039485D02*
X0157835Y0037950D01*
X0164200Y0033148D02*
X0164967Y0033915D01*
X0166502Y0033915D01*
X0167269Y0033148D01*
X0167269Y0032381D01*
X0166502Y0030846D01*
X0168804Y0030846D01*
X0168804Y0033915D01*
X0164200Y0033148D02*
X0164200Y0031613D01*
X0164967Y0030846D01*
X0164200Y0029311D02*
X0165735Y0027777D01*
X0165735Y0028544D02*
X0165735Y0026242D01*
X0164200Y0026242D02*
X0168804Y0026242D01*
X0168804Y0028544D01*
X0168037Y0029311D01*
X0166502Y0029311D01*
X0165735Y0028544D01*
X0197950Y0037009D02*
X0197950Y0038544D01*
X0198717Y0039311D01*
X0201787Y0039311D02*
X0202554Y0038544D01*
X0202554Y0037009D01*
X0201787Y0036242D01*
X0198717Y0036242D01*
X0197950Y0037009D01*
X0198717Y0040846D02*
X0197950Y0041613D01*
X0197950Y0043148D01*
X0198717Y0043915D01*
X0199485Y0043915D01*
X0200252Y0043148D01*
X0200252Y0042381D01*
X0200252Y0043148D02*
X0201019Y0043915D01*
X0201787Y0043915D01*
X0202554Y0043148D01*
X0202554Y0041613D01*
X0201787Y0040846D01*
X0234200Y0033915D02*
X0234200Y0030846D01*
X0237269Y0033915D01*
X0238037Y0033915D01*
X0238804Y0033148D01*
X0238804Y0031613D01*
X0238037Y0030846D01*
X0238037Y0029311D02*
X0236502Y0029311D01*
X0235735Y0028544D01*
X0235735Y0026242D01*
X0234200Y0026242D02*
X0238804Y0026242D01*
X0238804Y0028544D01*
X0238037Y0029311D01*
X0235735Y0027777D02*
X0234200Y0029311D01*
X0240335Y0037950D02*
X0242637Y0039485D01*
X0240335Y0041019D01*
X0242637Y0042554D02*
X0242637Y0037950D01*
X0244171Y0037950D02*
X0247241Y0037950D01*
X0245706Y0037950D02*
X0245706Y0042554D01*
X0247241Y0041019D01*
X0116820Y0049200D02*
X0113750Y0049200D01*
X0115285Y0049200D02*
X0115285Y0053804D01*
X0116820Y0052269D01*
X0112216Y0053037D02*
X0112216Y0049967D01*
X0109146Y0053037D01*
X0109146Y0049967D01*
X0109914Y0049200D01*
X0111448Y0049200D01*
X0112216Y0049967D01*
X0107612Y0049967D02*
X0104543Y0053037D01*
X0104543Y0049967D01*
X0105310Y0049200D01*
X0106845Y0049200D01*
X0107612Y0049967D01*
X0107612Y0053037D01*
X0106845Y0053804D01*
X0105310Y0053804D01*
X0104543Y0053037D01*
X0103008Y0052269D02*
X0100706Y0052269D01*
X0099939Y0051502D01*
X0099939Y0049200D01*
X0098404Y0049200D02*
X0098404Y0053804D01*
X0095335Y0053804D01*
X0096869Y0051502D02*
X0098404Y0051502D01*
X0103008Y0052269D02*
X0103008Y0049200D01*
X0109146Y0053037D02*
X0109914Y0053804D01*
X0111448Y0053804D01*
X0112216Y0053037D01*
X0111502Y0043915D02*
X0111502Y0040846D01*
X0113804Y0043148D01*
X0109200Y0043148D01*
X0109967Y0039311D02*
X0109200Y0038544D01*
X0109200Y0037009D01*
X0109967Y0036242D01*
X0113037Y0036242D01*
X0113804Y0037009D01*
X0113804Y0038544D01*
X0113037Y0039311D01*
X0055570Y0049200D02*
X0052500Y0049200D01*
X0054035Y0049200D02*
X0054035Y0053804D01*
X0055570Y0052269D01*
X0050966Y0053037D02*
X0050966Y0049967D01*
X0047896Y0053037D01*
X0047896Y0049967D01*
X0048664Y0049200D01*
X0050198Y0049200D01*
X0050966Y0049967D01*
X0046362Y0049967D02*
X0043293Y0053037D01*
X0043293Y0049967D01*
X0044060Y0049200D01*
X0045595Y0049200D01*
X0046362Y0049967D01*
X0046362Y0053037D01*
X0045595Y0053804D01*
X0044060Y0053804D01*
X0043293Y0053037D01*
X0041758Y0052269D02*
X0039456Y0052269D01*
X0038689Y0051502D01*
X0038689Y0049200D01*
X0037154Y0049200D02*
X0037154Y0053804D01*
X0034085Y0053804D01*
X0035619Y0051502D02*
X0037154Y0051502D01*
X0041758Y0052269D02*
X0041758Y0049200D01*
X0047896Y0053037D02*
X0048664Y0053804D01*
X0050198Y0053804D01*
X0050966Y0053037D01*
X0037554Y0043148D02*
X0036787Y0043915D01*
X0036019Y0043915D01*
X0032950Y0040846D01*
X0032950Y0043915D01*
X0037554Y0043148D02*
X0037554Y0041613D01*
X0036787Y0040846D01*
X0036787Y0039311D02*
X0037554Y0038544D01*
X0037554Y0037009D01*
X0036787Y0036242D01*
X0033717Y0036242D01*
X0032950Y0037009D01*
X0032950Y0038544D01*
X0033717Y0039311D01*
X0065335Y0061700D02*
X0067637Y0063235D01*
X0065335Y0064769D01*
X0067637Y0066304D02*
X0067637Y0061700D01*
X0069171Y0061700D02*
X0072241Y0061700D01*
X0070706Y0061700D02*
X0070706Y0066304D01*
X0072241Y0064769D01*
X0082835Y0061700D02*
X0085904Y0061700D01*
X0087439Y0061700D02*
X0088973Y0063235D01*
X0088206Y0063235D02*
X0090508Y0063235D01*
X0088206Y0063235D02*
X0087439Y0064002D01*
X0087439Y0065537D01*
X0088206Y0066304D01*
X0090508Y0066304D01*
X0090508Y0061700D01*
X0084369Y0061700D02*
X0084369Y0066304D01*
X0085904Y0064769D01*
M02*
