%
M48
M72
T01C0.0236
T02C0.0240
T03C0.0315
%
T01
X8025Y2025
X14650Y2025
X16650Y3400
X19275Y2650
X23775Y2025
X16650Y4650
X19275Y5150
X10400Y5150
X4275Y5150
X3901Y6276
T02
X6725Y4525
X6275Y4075
X6095Y3535
X4925Y3535
X8975Y4075
X9515Y3535
X11585Y3535
X12845Y3715
X14645Y3535
X15185Y3535
X18065Y4345
X19865Y3985
X21485Y3625
X23015Y3535
X24400Y4185
X22025Y4525
X21485Y4525
X18695Y5605
X18335Y5245
X16535Y5155
X15095Y4975
X13655Y4525
X13115Y4525
X12215Y4525
X15095Y5515
X13655Y5965
X12125Y5965
X10325Y6145
X9335Y5695
X19595Y6505
X20765Y6685
X22565Y5965
X23375Y5965
X18065Y2365
X17165Y2095
X17705Y2005
X16175Y2095
X15095Y1645
X14195Y1195
X9515Y2095
X7535Y1195
X20405Y1285
T03
X1275Y1025
X10275Y1025
X12275Y1025
X21275Y1025
X22275Y1025
X23275Y1025
X24275Y1025
X24275Y7025
X23275Y7025
X22275Y7025
X17275Y7025
X15275Y7025
X14275Y7025
X13275Y7025
X12275Y7025
X11275Y7025
X10275Y7025
X9275Y7025
X1275Y7025
M30
