G75*
%MOIN*%
%OFA0B0*%
%FSLAX25Y25*%
%IPPOS*%
%LPD*%
%AMOC8*
5,1,8,0,0,1.08239X$1,22.5*
%
%ADD10OC8,0.05150*%
%ADD11R,0.02600X0.08000*%
%ADD12R,0.09449X0.09449*%
%ADD13C,0.01000*%
%ADD14C,0.04000*%
%ADD15C,0.03000*%
%ADD16C,0.02500*%
%ADD17C,0.03962*%
%ADD18C,0.02000*%
D10*
X0012750Y0010250D03*
X0102750Y0010250D03*
X0122750Y0010250D03*
X0212750Y0010250D03*
X0222750Y0010250D03*
X0232750Y0010250D03*
X0242750Y0010250D03*
X0242750Y0070250D03*
X0232750Y0070250D03*
X0222750Y0070250D03*
X0172750Y0070250D03*
X0152750Y0070250D03*
X0142750Y0070250D03*
X0132750Y0070250D03*
X0122750Y0070250D03*
X0112750Y0070250D03*
X0102750Y0070250D03*
X0092750Y0070250D03*
X0012750Y0070250D03*
D11*
X0050250Y0052350D03*
X0055250Y0052350D03*
X0060250Y0052350D03*
X0065250Y0052350D03*
X0070250Y0052350D03*
X0075250Y0052350D03*
X0080250Y0052350D03*
X0111500Y0052350D03*
X0116500Y0052350D03*
X0121500Y0052350D03*
X0126500Y0052350D03*
X0131500Y0052350D03*
X0136500Y0052350D03*
X0141500Y0052350D03*
X0146500Y0052350D03*
X0200250Y0052350D03*
X0205250Y0052350D03*
X0210250Y0052350D03*
X0215250Y0052350D03*
X0220250Y0052350D03*
X0225250Y0052350D03*
X0230250Y0052350D03*
X0235250Y0052350D03*
X0235250Y0028150D03*
X0230250Y0028150D03*
X0225250Y0028150D03*
X0220250Y0028150D03*
X0215250Y0028150D03*
X0210250Y0028150D03*
X0205250Y0028150D03*
X0200250Y0028150D03*
X0146500Y0028150D03*
X0141500Y0028150D03*
X0136500Y0028150D03*
X0131500Y0028150D03*
X0126500Y0028150D03*
X0121500Y0028150D03*
X0116500Y0028150D03*
X0111500Y0028150D03*
X0080250Y0028150D03*
X0075250Y0028150D03*
X0070250Y0028150D03*
X0065250Y0028150D03*
X0060250Y0028150D03*
X0055250Y0028150D03*
X0050250Y0028150D03*
D12*
X0017750Y0030407D03*
X0017750Y0050093D03*
D13*
X0026500Y0056500D02*
X0026500Y0039200D01*
X0026750Y0038950D01*
X0018650Y0030850D01*
X0017750Y0030407D01*
X0026750Y0038950D02*
X0049250Y0038950D01*
X0060050Y0049750D01*
X0060050Y0051550D01*
X0060250Y0052350D01*
X0060950Y0052450D01*
X0064550Y0052450D01*
X0065250Y0052350D01*
X0069950Y0051550D02*
X0070250Y0052350D01*
X0069950Y0051550D02*
X0069950Y0047950D01*
X0067250Y0045250D01*
X0074450Y0047050D02*
X0074450Y0051550D01*
X0075250Y0052350D01*
X0075350Y0052450D01*
X0079850Y0052450D01*
X0080250Y0052350D01*
X0093350Y0056950D02*
X0103250Y0047050D01*
X0118550Y0047050D01*
X0121250Y0049750D01*
X0121250Y0051550D01*
X0121500Y0052350D01*
X0125750Y0051550D02*
X0126500Y0052350D01*
X0126650Y0052450D01*
X0126650Y0055150D01*
X0131150Y0059650D01*
X0136550Y0059650D01*
X0138350Y0063250D02*
X0141050Y0060550D01*
X0141050Y0052450D01*
X0141500Y0052350D01*
X0141950Y0051550D01*
X0141950Y0049750D01*
X0145550Y0046150D01*
X0152750Y0046150D01*
X0158150Y0051550D01*
X0165350Y0051550D01*
X0167150Y0055150D02*
X0171650Y0050650D01*
X0171650Y0020950D01*
X0177050Y0020050D02*
X0191450Y0020050D01*
X0202250Y0009250D01*
X0205850Y0009250D01*
X0211250Y0014650D01*
X0228350Y0014650D01*
X0232750Y0010250D01*
X0214850Y0020950D02*
X0206750Y0012850D01*
X0204050Y0012850D01*
X0214850Y0020950D02*
X0220250Y0020950D01*
X0224750Y0025450D01*
X0224750Y0028150D01*
X0225250Y0028150D01*
X0225650Y0028150D01*
X0225650Y0036250D01*
X0228350Y0038950D01*
X0241100Y0038950D01*
X0244000Y0041850D01*
X0240050Y0047050D02*
X0238250Y0045250D01*
X0231950Y0045250D01*
X0226550Y0039850D01*
X0213050Y0039850D01*
X0210350Y0037150D01*
X0210350Y0028150D01*
X0210250Y0028150D01*
X0205850Y0028150D02*
X0205250Y0028150D01*
X0205850Y0028150D02*
X0205850Y0035350D01*
X0212150Y0041650D01*
X0225650Y0041650D01*
X0231050Y0047050D01*
X0237350Y0047050D01*
X0238250Y0047950D01*
X0238250Y0060550D01*
X0232850Y0065950D01*
X0226550Y0065950D01*
X0222950Y0069550D01*
X0222750Y0070250D01*
X0216650Y0070450D02*
X0223850Y0063250D01*
X0230150Y0063250D01*
X0233750Y0059650D01*
X0240050Y0062350D02*
X0232850Y0069550D01*
X0232750Y0070250D01*
X0216650Y0070450D02*
X0205850Y0070450D01*
X0204050Y0068650D01*
X0204050Y0065050D01*
X0204950Y0064150D01*
X0204950Y0052450D01*
X0205250Y0052350D01*
X0209450Y0051550D02*
X0210250Y0052350D01*
X0209450Y0051550D02*
X0209450Y0045250D01*
X0196850Y0032650D01*
X0159950Y0069550D01*
X0152750Y0069550D01*
X0152750Y0070250D01*
X0147350Y0069550D02*
X0161750Y0055150D01*
X0167150Y0055150D01*
X0150950Y0055150D02*
X0150950Y0056050D01*
X0137450Y0069550D01*
X0132950Y0069550D01*
X0132750Y0070250D01*
X0132050Y0065050D02*
X0127550Y0069550D01*
X0123050Y0069550D01*
X0122750Y0070250D01*
X0117650Y0069550D02*
X0123950Y0063250D01*
X0138350Y0063250D01*
X0139250Y0065050D02*
X0146450Y0057850D01*
X0146450Y0052450D01*
X0146500Y0052350D01*
X0147350Y0051550D01*
X0149150Y0049750D01*
X0150950Y0049750D01*
X0136550Y0051550D02*
X0136550Y0045250D01*
X0131150Y0045250D02*
X0131150Y0051550D01*
X0131500Y0052350D01*
X0136500Y0052350D02*
X0136550Y0051550D01*
X0125750Y0051550D02*
X0125750Y0045250D01*
X0132050Y0038950D01*
X0132050Y0035350D01*
X0130250Y0033550D01*
X0129350Y0033550D01*
X0126650Y0030850D01*
X0126650Y0028150D01*
X0126500Y0028150D01*
X0131150Y0028150D02*
X0131500Y0028150D01*
X0131150Y0028150D02*
X0131150Y0025450D01*
X0126650Y0020950D01*
X0095150Y0020950D01*
X0091550Y0019150D02*
X0091550Y0022750D01*
X0093350Y0024550D01*
X0096950Y0024550D01*
X0098750Y0022750D01*
X0118550Y0022750D01*
X0121250Y0025450D01*
X0121250Y0028150D01*
X0121500Y0028150D01*
X0116750Y0028150D02*
X0116500Y0028150D01*
X0116750Y0028150D02*
X0116750Y0030850D01*
X0123050Y0037150D01*
X0128450Y0037150D01*
X0123950Y0041650D02*
X0116750Y0041650D01*
X0110450Y0035350D01*
X0095150Y0035350D01*
X0089750Y0026350D02*
X0082550Y0033550D01*
X0078050Y0033550D01*
X0075350Y0030850D01*
X0075350Y0028150D01*
X0075250Y0028150D01*
X0070850Y0028150D02*
X0070250Y0028150D01*
X0070850Y0028150D02*
X0070850Y0016450D01*
X0075350Y0011950D01*
X0089750Y0018250D02*
X0093350Y0014650D01*
X0118550Y0014650D01*
X0122150Y0011050D01*
X0122750Y0010250D01*
X0137450Y0016450D02*
X0141950Y0011950D01*
X0137450Y0016450D02*
X0094250Y0016450D01*
X0091550Y0019150D01*
X0089750Y0018250D02*
X0089750Y0026350D01*
X0111500Y0028150D02*
X0112250Y0028150D01*
X0112250Y0031750D01*
X0115850Y0035350D01*
X0113150Y0040750D02*
X0117650Y0045250D01*
X0122150Y0045250D01*
X0125750Y0045250D02*
X0125750Y0043450D01*
X0123950Y0041650D01*
X0113150Y0040750D02*
X0089750Y0040750D01*
X0074450Y0047050D02*
X0065450Y0038050D01*
X0065450Y0028150D01*
X0065250Y0028150D01*
X0060950Y0028150D02*
X0060250Y0028150D01*
X0060950Y0028150D02*
X0060950Y0035350D01*
X0060050Y0040750D02*
X0051050Y0031750D01*
X0051050Y0028150D01*
X0050250Y0028150D01*
X0054650Y0028150D02*
X0055250Y0028150D01*
X0054650Y0028150D02*
X0054650Y0024550D01*
X0052850Y0022750D01*
X0048350Y0022750D01*
X0047450Y0023650D01*
X0047450Y0033550D01*
X0049250Y0035350D01*
X0060050Y0040750D02*
X0062750Y0040750D01*
X0032760Y0062760D02*
X0026500Y0056500D01*
X0032760Y0062760D02*
X0039010Y0062760D01*
X0092750Y0070250D02*
X0093350Y0069550D01*
X0101450Y0061450D01*
X0103250Y0061450D01*
X0116750Y0055150D02*
X0121250Y0059650D01*
X0116750Y0055150D02*
X0116750Y0052450D01*
X0116500Y0052350D01*
X0132050Y0065050D02*
X0139250Y0065050D01*
X0142850Y0069550D02*
X0142750Y0070250D01*
X0142850Y0069550D02*
X0147350Y0069550D01*
X0117650Y0069550D02*
X0113150Y0069550D01*
X0112750Y0070250D01*
X0183350Y0052450D02*
X0195950Y0039850D01*
X0198650Y0039850D01*
X0214850Y0036250D02*
X0214850Y0028150D01*
X0215250Y0028150D01*
X0220250Y0028150D02*
X0220250Y0025450D01*
X0217550Y0022750D01*
X0191450Y0022750D01*
X0188750Y0025450D01*
X0188750Y0027250D01*
X0191450Y0029950D01*
X0194150Y0029950D01*
X0196850Y0032650D01*
X0180650Y0023650D02*
X0180650Y0043450D01*
X0161750Y0030850D02*
X0151850Y0040750D01*
X0143750Y0040750D01*
X0136550Y0033550D01*
X0136550Y0028150D01*
X0136500Y0028150D01*
X0141500Y0028150D02*
X0141950Y0028150D01*
X0141950Y0036250D01*
X0144650Y0038950D01*
X0148250Y0038950D01*
X0151850Y0035350D01*
X0150950Y0030850D02*
X0146450Y0035350D01*
X0150950Y0030850D02*
X0150950Y0016450D01*
X0161750Y0020950D02*
X0161750Y0030850D01*
X0214850Y0045250D02*
X0214850Y0051550D01*
X0215250Y0052350D01*
X0214850Y0052450D01*
X0214850Y0055150D01*
X0207650Y0062350D01*
X0207650Y0066850D01*
X0195950Y0065050D02*
X0186950Y0056050D01*
X0220250Y0055150D02*
X0220250Y0052350D01*
X0224750Y0051550D02*
X0225250Y0052350D01*
X0224750Y0051550D02*
X0224750Y0048850D01*
X0221150Y0045250D01*
X0220250Y0045250D01*
X0240050Y0047050D02*
X0240050Y0062350D01*
X0225650Y0059650D02*
X0224750Y0059650D01*
X0220250Y0055150D01*
X0230150Y0035350D02*
X0230150Y0028150D01*
X0230250Y0028150D01*
D14*
X0230150Y0035350D03*
X0214850Y0036250D03*
X0198650Y0039850D03*
X0214850Y0045250D03*
X0220250Y0045250D03*
X0244000Y0041850D03*
X0186950Y0056050D03*
X0183350Y0052450D03*
X0165350Y0051550D03*
X0150950Y0049750D03*
X0136550Y0045250D03*
X0131150Y0045250D03*
X0122150Y0045250D03*
X0128450Y0037150D03*
X0115850Y0035350D03*
X0095150Y0035350D03*
X0089750Y0040750D03*
X0067250Y0045250D03*
X0062750Y0040750D03*
X0060950Y0035350D03*
X0049250Y0035350D03*
X0095150Y0020950D03*
X0075350Y0011950D03*
X0141950Y0011950D03*
X0150950Y0016450D03*
X0161750Y0020950D03*
X0171650Y0020950D03*
X0177050Y0020050D03*
X0180650Y0023650D03*
X0204050Y0012850D03*
X0151850Y0035350D03*
X0146450Y0035350D03*
X0180650Y0043450D03*
X0150950Y0055150D03*
X0136550Y0059650D03*
X0121250Y0059650D03*
X0103250Y0061450D03*
X0093350Y0056950D03*
X0195950Y0065050D03*
X0207650Y0066850D03*
X0225650Y0059650D03*
X0233750Y0059650D03*
D15*
X0017750Y0050093D02*
X0012750Y0055093D01*
X0012750Y0070250D01*
X0017750Y0030407D02*
X0012750Y0025407D01*
X0012750Y0010250D01*
D16*
X0019000Y0004000D01*
X0080250Y0004000D01*
X0080250Y0020250D01*
X0080250Y0028150D01*
X0146500Y0028150D02*
X0146500Y0020250D01*
X0146500Y0004000D01*
X0166500Y0004000D01*
X0166500Y0034000D01*
X0166500Y0046500D01*
X0200250Y0052350D02*
X0200250Y0076500D01*
X0107750Y0076500D01*
X0107750Y0056100D01*
X0111500Y0052350D01*
X0050250Y0052350D02*
X0050250Y0076500D01*
X0019000Y0076500D01*
X0012750Y0070250D01*
X0050250Y0076500D02*
X0107750Y0076500D01*
X0235250Y0028150D02*
X0237750Y0025650D01*
X0237750Y0020250D01*
X0237750Y0004000D01*
X0242750Y0004000D01*
X0242750Y0010250D01*
X0237750Y0004000D02*
X0166500Y0004000D01*
X0146500Y0004000D02*
X0080250Y0004000D01*
D17*
X0080250Y0020250D03*
X0146500Y0020250D03*
X0166500Y0034000D03*
X0192750Y0026500D03*
X0237750Y0020250D03*
X0166500Y0046500D03*
X0192750Y0051500D03*
X0104000Y0051500D03*
X0042750Y0051500D03*
X0039010Y0062760D03*
D18*
X0050250Y0052350D02*
X0049400Y0051500D01*
X0042750Y0051500D01*
X0104000Y0051500D02*
X0110650Y0051500D01*
X0111500Y0052350D01*
X0192750Y0051500D02*
X0199400Y0051500D01*
X0200250Y0052350D01*
X0200250Y0028150D02*
X0198600Y0026500D01*
X0192750Y0026500D01*
X0199850Y0027750D02*
X0200250Y0028150D01*
M02*
